<svg width="323" height="192" viewBox="0 0 323 192" fill="none" xmlns="http://www.w3.org/2000/svg">
<g clip-path="url(#clip0)">
<path d="M0 0.0334058C31.7657 0.0334058 63.5306 0.0241523 95.2946 0.00564575C96.4908 0.00564575 96.8088 0.258008 96.8088 1.48954C96.7684 32.2677 96.7483 63.045 96.7483 93.8214C96.7483 95.0227 97.0006 95.3154 98.2296 95.3129C129.068 95.2759 159.908 95.2565 190.748 95.2549C191.899 95.2549 192.164 95.5451 192.164 96.6782C192.132 127.959 192.132 159.241 192.164 190.522C192.164 191.761 191.844 192.006 190.65 192.003C159.429 191.968 128.21 191.958 96.9931 191.973C95.1382 191.973 95.3577 192.192 95.3577 190.396C95.3577 159.661 95.367 128.925 95.3855 98.1873C95.3855 96.9835 95.1332 96.6883 93.8991 96.6908C63.057 96.7278 32.2166 96.7388 1.37792 96.7236C0.918621 96.7236 0.4593 96.7665 0 96.7918V0.0334058Z" fill="#162816"/>
<path d="M290.164 73.4173C288.185 72.5442 286.495 71.4363 285.927 69.218C285.437 67.3127 286.025 65.6673 287.163 64.1708C288.11 62.9886 289.247 61.9728 290.527 61.1651C290.926 60.8976 291.151 60.7513 290.697 60.244C283.555 52.2391 286.813 41.0115 297.149 37.8645C301.44 36.5598 305.747 36.8046 309.947 37.9301C313.243 38.8134 315.943 38.0083 318.593 36.2267C319.887 35.356 320.864 35.7775 321.25 37.3421C321.523 38.4323 321.164 39.419 320.604 40.3301C319.826 41.5356 318.743 42.5141 317.465 43.1666C316.96 43.4468 316.872 43.6941 317.129 44.2442C320.541 51.4896 317.033 61.3241 305.884 63.2496C302.318 63.9099 298.646 63.717 295.168 62.6869C294.51 62.485 294.177 62.6364 293.798 63.1159C292.057 65.314 292.773 67.5701 295.532 68.2994C298.722 69.1423 301.947 68.7764 305.167 68.4559C308.465 68.1278 311.761 67.7543 315.08 68.2919C322.176 69.4401 323.589 75.1738 321.566 80.1655C320.152 83.6557 317.442 85.9699 314.09 87.4487C307.057 90.5629 299.837 90.9818 292.531 88.4582C290.124 87.6254 287.989 86.2828 286.459 84.168C284.221 81.0665 284.574 77.9725 287.469 75.4716C288.286 74.7448 289.2 74.1416 290.164 73.4173Z" fill="#F4BE20"/>
<path d="M223.338 165.815C222.026 166.771 220.815 167.715 219.538 168.591C216.744 170.503 213.373 171.385 210.001 171.083C206.629 170.781 203.467 169.316 201.057 166.938C197.923 163.857 196.437 159.978 196.01 155.7C195.561 151.158 196.081 146.739 198.057 142.577C202.256 133.714 212.012 130.093 221.211 133.972C223.341 134.87 223.376 134.86 223.369 132.559C223.369 130.923 223.444 129.278 223.182 127.658C222.957 126.26 222.231 125.386 220.865 125.003C220.215 124.842 219.575 124.643 218.947 124.407C217.539 123.832 217.264 122.356 218.349 121.268C218.608 120.991 218.913 120.76 219.25 120.586C222.531 119.045 225.915 117.843 229.582 117.707C231.525 117.636 232.249 118.212 232.285 120.16C232.338 123.095 232.164 126.032 232.105 128.97C231.896 139.38 231.737 149.787 232.201 160.195C232.201 160.404 232.217 160.616 232.237 160.823C232.54 163.708 232.593 163.761 235.416 164.485C236.34 164.722 237.392 164.828 237.524 166.098C237.655 167.367 236.804 167.98 235.795 168.422C232.709 169.772 229.519 170.769 226.147 171.079C224.35 171.246 223.697 170.627 223.601 168.831C223.555 167.854 223.76 166.88 223.338 165.815Z" fill="#F4BE20"/>
<path d="M190.334 37.814C190.334 42.0537 190.334 46.2934 190.334 50.5356C190.334 51.0605 190.188 51.7091 190.786 52.0069C191.324 52.2593 191.74 51.8025 192.131 51.5274C194.772 49.6498 197.173 47.4556 199.281 44.9937C200.325 43.7799 200.224 43.5048 198.829 42.778C197.898 42.2909 197.077 41.7332 197.201 40.5067C197.325 39.2802 198.185 38.6317 199.245 38.397C203.106 37.5386 207.102 37.4837 210.985 38.2355C211.611 38.3425 212.191 38.6313 212.653 39.0657C212.894 39.285 213.08 39.5584 213.194 39.8635C213.309 40.1685 213.349 40.4964 213.312 40.8202C213.275 41.1439 213.161 41.4541 212.98 41.7252C212.799 41.9963 212.557 42.2205 212.272 42.3793C211.876 42.6143 211.441 42.7767 210.988 42.8587C206.231 43.583 203.417 47.0581 200.388 50.253C199.768 50.9066 199.947 51.5148 200.373 52.1785C201.617 54.0763 203.028 55.8479 204.411 57.6371C206.579 60.4131 208.815 63.1411 211.167 65.7733C212.959 67.7796 214.927 69.4578 217.645 70.0861C218.836 70.3612 219.916 70.8912 219.841 72.4054C219.793 73.5688 218.977 74.4444 217.443 74.7927C214.607 75.4358 211.673 75.5121 208.807 75.0173C207.187 74.7422 206.145 73.4804 205.173 72.2615C202.324 68.683 199.52 65.0667 196.669 61.4907C195.127 59.5551 193.64 57.5664 191.874 55.8176C191.561 55.5072 191.245 55.0151 190.718 55.2699C190.286 55.4794 190.334 55.9866 190.337 56.403C190.37 59.9689 190.201 63.5373 190.589 67.0982C190.768 68.7385 191.313 70.013 193.113 70.3991C193.392 70.4895 193.66 70.6097 193.913 70.7574C194.288 70.9013 194.609 71.1589 194.831 71.4942C195.053 71.8295 195.164 72.2257 195.149 72.6274C195.149 73.6041 194.574 74.182 193.741 74.5176C192.318 75.0905 190.799 75.146 189.29 75.2268C186.14 75.3933 182.996 75.3807 179.871 74.8735C179.458 74.8061 179.055 74.6891 178.67 74.5252C177.736 74.134 177.209 73.4678 177.214 72.3978C177.219 71.3278 177.835 70.8357 178.685 70.606C180.734 70.0533 181.363 68.5518 181.577 66.6666C181.745 65.2066 181.823 63.7376 181.809 62.2679C181.711 53.1173 181.926 43.9616 181.575 34.8134C181.575 34.5611 181.56 34.3087 181.55 34.0563C181.398 30.3592 181.214 30.1245 177.764 29.0368C176.868 28.7567 175.793 28.6659 175.695 27.3763C175.594 26.0363 176.452 25.4028 177.512 24.9612C180.929 23.5303 184.442 22.4376 188.164 22.1978C190.024 22.0792 190.635 22.5865 190.688 24.4691C190.746 26.9397 190.592 29.4179 190.561 31.8936C190.536 33.8645 190.561 35.8355 190.561 37.809L190.334 37.814Z" fill="#F4BE20"/>
<path d="M279.575 58.6995C279.698 61.1045 279.322 64.0395 279.575 66.9795C279.719 68.6956 280.39 69.9145 282.126 70.4546C283.113 70.7599 284.001 71.2117 283.933 72.529C283.865 73.8791 282.972 74.3965 281.859 74.7018C281.297 74.8753 280.718 74.9854 280.133 75.0299C276.314 75.1939 272.494 75.3908 268.688 74.8507C268.232 74.7865 267.785 74.6705 267.355 74.505C266.515 74.1769 265.962 73.6217 265.942 72.6325C265.922 71.6432 266.381 70.9517 267.277 70.7423C269.836 70.1442 270.558 68.3877 270.654 66.0105C270.878 60.8875 270.929 55.7671 270.26 50.6769C269.687 46.3161 267.913 44.5193 264.203 44.2492C260.943 43.9969 257.672 46.4852 256.683 49.9678C256.187 51.8339 255.919 53.7532 255.883 55.6838C255.742 59.5424 255.583 63.401 255.883 67.2622C256.004 68.8596 256.67 69.9625 258.275 70.3991C258.554 70.4927 258.827 70.6014 259.093 70.7246C259.961 71.0628 260.466 71.6583 260.443 72.6274C260.421 73.5965 259.868 74.187 259.032 74.5201C257.645 75.0753 256.171 75.1334 254.705 75.2141C251.51 75.3908 248.322 75.3706 245.158 74.8583C244.667 74.7595 244.189 74.601 243.737 74.3864C242.876 74.0078 242.508 73.3138 242.5 72.3801C242.493 71.4464 243.053 70.8533 243.86 70.6363C246.109 70.0331 246.917 68.4584 246.937 66.3209C246.99 59.9033 247.118 53.4857 246.634 47.0757C246.525 45.6372 245.791 44.7742 244.393 44.4284C243.865 44.2962 243.349 44.1189 242.851 43.8985C241.337 43.2297 241.145 41.8089 242.409 40.7162C242.997 40.2394 243.659 39.8641 244.37 39.6058C247.201 38.4427 250.163 37.6275 253.19 37.178C255.063 36.9257 255.845 37.5944 255.898 39.5099C255.913 40.1408 255.88 40.7717 255.911 41.4001C255.926 41.7105 255.719 42.1395 256.082 42.3111C256.511 42.5155 256.744 42.0714 257.011 41.8316C257.607 41.3016 258.187 40.754 258.778 40.2064C262.356 36.8374 266.563 36.1964 271.047 37.7383C275.744 39.3509 278.386 42.8259 279.123 47.7369C279.648 51.1993 279.557 54.6844 279.575 58.6995Z" fill="#F4BE20"/>
<path d="M170.436 57.0667C170.436 60.0118 170.436 62.6566 170.436 65.3013C170.438 66.0141 170.516 66.7247 170.668 67.4212C170.867 68.3726 171.344 69.0161 172.343 69.2205C172.835 69.3254 173.32 69.4577 173.797 69.6167C175.538 70.1795 175.95 71.4161 174.822 72.8975C173.376 74.7801 171.271 75.4211 169.05 75.8955C166.527 76.423 164.672 75.517 163.077 73.6243C161.482 71.7315 161.875 71.7542 159.68 73.1851C155.677 75.7946 151.38 76.7485 146.726 75.5422C141.911 74.2955 138.757 70.4369 138.454 65.6244C138.098 60.0017 140.669 55.6333 145.628 53.5286C149.805 51.7621 154.189 51.6813 158.617 52.07C159.16 52.1179 159.7 52.1911 160.243 52.2567C161.878 52.4561 161.893 52.4586 161.873 50.7425C161.858 49.4454 161.966 48.1432 161.739 46.8486C160.944 42.3061 157.265 40.4537 153.108 42.5004C151.569 43.2575 150.383 44.436 149.323 45.7609C148.672 46.5836 148.033 47.4189 147.158 48.0322C145.626 49.1022 143.541 49.1956 142.325 48.2416C141.109 47.2877 140.73 45.4227 141.399 43.6284C142.095 41.7559 143.511 40.5471 145.184 39.573C147.584 38.1724 150.231 37.5187 152.949 37.2538C156.558 36.9005 160.152 36.8828 163.65 38.0967C167.687 39.5023 169.805 42.3389 170.211 46.5786C170.537 50.1419 170.362 53.7507 170.436 57.0667Z" fill="#F4BE20"/>
<path d="M122.083 55.9639C118.681 55.9639 115.269 55.9488 111.877 55.9639C110.179 55.9639 109.899 56.2819 109.899 57.9526C109.899 66.7701 119.236 72.1076 127.272 67.8906C128.444 67.2373 129.553 66.477 130.585 65.6193C130.906 65.3473 131.243 65.0945 131.595 64.8623C132.589 64.2566 133.629 63.9361 134.59 64.8623C135.552 65.7884 135.229 66.8458 134.59 67.7266C131.547 71.888 127.476 74.6388 122.416 75.5498C111.655 77.5081 102.426 71.1764 100.541 60.4081C98.795 50.4296 103.931 39.7522 115.305 37.4431C120.745 36.3428 126.078 36.7718 130.54 40.5572C134.555 43.9641 135.668 48.5748 135.269 53.617C135.13 55.3482 134.355 55.8882 132.422 55.9135C128.978 55.9513 125.533 55.9135 122.075 55.9135L122.083 55.9639Z" fill="#F4BE20"/>
<path d="M235.154 52.4435C234.917 57.304 234.513 62.1645 234.945 67.03C235.104 68.8117 235.82 70.0281 237.62 70.5177C238.745 70.823 239.639 71.3782 239.525 72.7687C239.411 74.1593 238.359 74.5605 237.284 74.7876C234.349 75.4186 231.358 75.3454 228.383 75.2419C227.003 75.194 225.607 75.2141 224.254 74.8558C223.769 74.7379 223.294 74.5784 222.836 74.3788C221.991 73.9952 221.605 73.3164 221.6 72.3725C221.595 71.4287 222.165 70.8584 222.965 70.6338C225.145 70.0508 226.006 68.5341 226.039 66.4496C226.14 59.9942 226.241 53.5387 225.741 47.0909C225.63 45.6625 224.941 44.7615 223.52 44.4335C223.074 44.322 222.636 44.1812 222.208 44.012C221.473 43.7395 220.8 43.3685 220.709 42.4979C220.623 41.6701 221.057 41.0695 221.691 40.5774C222.372 40.0877 223.12 39.6977 223.911 39.419C226.519 38.3896 229.225 37.6286 231.987 37.1478C234.478 36.7162 235.227 37.3421 235.237 39.8733C235.237 42.0941 235.167 44.3174 235.149 46.5407C235.141 48.5016 235.154 50.4725 235.154 52.4435Z" fill="#F4BE20"/>
<path d="M229.446 33.0141C229.236 33.0141 229.027 33.0267 228.817 33.0141C226.324 32.845 224.242 31.2274 223.921 29.2135C223.558 26.9246 225.004 24.671 227.455 23.7574C228.297 23.4254 229.199 23.2683 230.104 23.2957C231.01 23.323 231.9 23.5342 232.721 23.9164C234.314 24.6533 235.341 25.8419 235.518 27.6463C235.707 29.5744 234.811 30.9674 233.269 31.9819C232.132 32.7131 230.796 33.0737 229.446 33.0141Z" fill="#F4BE20"/>
<path d="M95.3073 50.4246V65.0389C95.022 65.5515 94.6585 66.0164 94.2297 66.4168C84.963 75.6701 75.6996 84.9276 66.4395 94.1893C66.0406 94.6199 65.5744 94.983 65.0591 95.2644H50.4221C50.3136 94.4921 50.9697 94.1792 51.3861 93.7628C56.8607 88.2664 62.3437 82.7775 67.8351 77.2962C68.2036 76.9277 68.6931 76.6324 68.8446 75.9914C67.608 75.8299 66.3992 76.0116 65.203 75.8854C64.9178 75.8552 64.5645 75.8223 64.5241 75.4539C64.4989 75.2217 64.7765 75.1561 64.9632 75.0804C67.1815 74.8508 69.4023 75.0249 71.618 74.9719C73.0666 74.9366 73.2003 74.8356 73.2054 73.3845C73.2205 68.1127 73.2054 62.8383 73.2054 57.5639C73.2054 56.9002 73.1221 56.2188 73.4578 55.6005C73.6899 55.3482 73.8842 55.3936 74.0155 55.7015C74.2148 56.181 74.1644 56.6907 74.1644 57.1904C74.1644 61.2106 74.1644 65.2307 74.1644 69.2508C74.1644 69.6597 74.071 70.0836 74.288 70.5505C74.8407 70.394 75.1461 69.9322 75.5095 69.5688C81.5662 63.534 87.6153 57.4975 93.6568 51.4593C94.1489 51.0101 94.4922 50.3337 95.3073 50.4246Z" fill="#F4BE20"/>
<path d="M35.8052 95.2643H21.1833C21.0621 94.5401 21.688 94.2549 22.0615 93.8637C27.6135 88.2916 33.1722 82.7287 38.7376 77.175C39.0556 76.857 39.4543 76.5971 39.6184 76.1378C39.4619 75.7365 38.8613 75.9536 38.7528 75.5119C38.7557 75.4472 38.776 75.3845 38.8115 75.3303C38.847 75.2761 38.8965 75.2325 38.9546 75.204C41.1098 74.9239 43.2877 74.9088 45.4328 74.5176C48.0574 74.0381 50.5507 73.2558 52.7513 71.6861C54.969 70.1289 56.5526 67.826 57.2131 65.1979C57.708 63.5078 57.9429 61.7523 57.9096 59.9916C57.8869 59.3683 57.8364 58.7298 58.0484 58.1241C60.0421 56.4636 61.8086 54.5633 63.6862 52.7816C64.0294 52.4561 64.5013 52.0018 64.8294 52.8548C65.0262 57.256 64.9783 61.6597 64.8622 66.0584C64.7792 66.3837 64.5955 66.6743 64.3373 66.8887C55.1109 75.9208 46.0536 85.1244 36.8979 94.2271C36.5421 94.583 36.1862 94.9363 35.8052 95.2643Z" fill="#F4BE20"/>
<path d="M26.7176 1.30725H46.3842C46.1823 2.07948 45.5312 1.83721 45.0492 1.84226C42.571 1.87507 40.0928 1.86749 37.6146 1.84226C37.2822 1.82289 36.9497 1.87683 36.6405 2.00025C36.3313 2.12366 36.053 2.31354 35.8254 2.55645C29.7687 8.67876 23.6615 14.7405 17.577 20.8325C17.0445 21.3676 16.5095 21.9 16.0275 22.483C15.6858 22.7305 15.3851 23.0303 15.1366 23.3713C10.7859 27.4974 6.66485 31.8507 2.35702 36.0172C1.87753 36.4816 1.8523 37.0267 1.8523 37.6323C1.8523 40.1888 1.86995 42.7427 1.83714 45.2991C1.83714 45.7811 2.05669 46.4272 1.29456 46.6316V31.0103C1.54692 28.2142 1.36774 25.4104 1.38793 22.6092C1.37262 22.2405 1.43835 21.8729 1.5805 21.5324C1.72264 21.1918 1.93774 20.8866 2.21063 20.6382C8.38511 14.5361 14.5259 8.39948 20.6331 2.22837C20.8791 1.95202 21.1837 1.73407 21.5247 1.59043C21.8657 1.44679 22.2345 1.38109 22.6041 1.3981C23.9643 1.40567 25.3472 1.547 26.7176 1.30725Z" fill="#F5C538"/>
<path d="M95.3072 50.4245C94.964 50.7274 94.6006 51.0125 94.2776 51.3356C87.9786 57.6211 81.6822 63.9091 75.3882 70.1997C75.0097 70.5757 74.7018 71.0653 73.8488 71.1814V55.4011C73.435 54.9191 73.5637 54.3715 73.6898 53.8466C74.5933 50.1192 76.8873 47.6763 80.5415 46.5281C81.5766 46.1819 82.6522 45.9716 83.7415 45.9022C84.9351 45.8517 85.185 45.2763 85.1547 44.2189C85.1143 42.9268 85.026 41.6247 85.2354 40.3376C85.5913 39.5301 86.4014 39.1666 86.9818 38.5711C89.2909 36.209 91.6379 33.8822 93.9899 31.5604C94.3533 31.2046 94.6334 30.6393 95.3098 30.7781L95.3072 50.4245Z" fill="#F4BE20"/>
<path d="M131.365 190.514H116.491C116.304 189.59 117.048 189.176 117.553 188.671C123.492 182.711 129.442 176.76 135.403 170.819C135.923 170.332 136.396 169.798 136.819 169.224C137.457 168.573 138.353 168.404 139.123 167.993C141.899 166.516 143.864 164.351 144.927 161.376C145.076 160.954 145.139 160.467 145.598 160.217C146.161 160.306 146.519 159.965 146.878 159.617C147.602 158.88 148.314 158.13 149.078 157.439C149.374 157.174 149.679 156.667 150.199 157.151C150.331 157.463 150.367 157.806 150.302 158.138C149.722 161.727 150.807 164.828 153.078 167.571C153.216 167.729 153.319 167.915 153.379 168.116C153.427 168.556 153.126 168.81 152.856 169.07C145.694 176.217 138.575 183.412 131.365 190.514Z" fill="#F4BE20"/>
<path d="M190.849 145.676V170.378C190.818 170.406 190.793 170.441 190.776 170.479C190.759 170.518 190.751 170.56 190.751 170.602C191.175 172.765 190.016 174.135 188.558 175.551C183.876 180.094 179.301 184.747 174.678 189.365C174.255 189.829 173.759 190.219 173.209 190.521H158.32C157.969 189.666 158.718 189.325 159.147 188.893C164.492 183.521 169.926 178.234 175.177 172.772C176.762 171.127 178.327 170.234 180.623 170.529C182.069 170.713 183.551 170.478 185.015 170.622C185.181 170.637 185.229 170.622 185.065 170.6C185.01 170.6 184.962 170.476 184.898 170.408C184.052 168.904 183.634 167.197 183.69 165.472C183.705 164.185 183.488 162.882 183.871 161.61C185.693 159.771 187.508 157.921 189.386 156.134C189.68 155.874 189.912 155.55 190.064 155.188C190.216 154.825 190.283 154.432 190.261 154.04C190.229 151.698 190.229 149.357 190.261 147.016C190.294 146.522 190.1 145.881 190.849 145.676Z" fill="#F4BE20"/>
<path d="M84.9605 1.3123C88.0965 1.3123 91.2351 1.30725 94.3761 1.29715C94.6992 1.29715 95.0575 1.21388 95.2998 1.54952C95.2006 1.63692 95.0903 1.71075 94.9717 1.76907C93.0537 2.00125 91.1282 1.87507 89.2077 1.85488C88.7153 1.82684 88.2232 1.91344 87.7699 2.10787C87.3167 2.3023 86.9148 2.59926 86.5958 2.97537C84.2311 5.51413 81.6974 7.89139 79.2773 10.3822C78.717 10.5866 78.3309 10.1551 77.8767 9.986C76.2767 9.38538 74.3436 9.80177 73.5335 10.9955C73.2635 11.3891 72.8117 11.8838 73.3467 12.3229C73.8817 12.762 74.3562 12.4768 74.7019 11.9342C74.9061 11.5608 75.2457 11.28 75.6508 11.1494C76.0227 11.0549 76.4136 11.0672 76.7789 11.1847C76.9574 11.2544 77.1063 11.3837 77.2003 11.5506C77.1145 12.6055 76.1909 13.1304 75.6861 13.9077C75.6066 13.9963 75.5224 14.0806 75.4338 14.1601C74.3335 14.9702 73.2912 15.8332 72.731 17.1329C72.6124 17.8395 73.1549 18.4553 73.0061 19.1644C72.819 19.5399 72.553 19.8705 72.2263 20.1335C67.3186 25.0445 62.4051 29.9496 57.4857 34.8488C57.0618 35.2702 56.6959 36.0399 55.8454 35.5226C55.6107 35.1087 55.593 34.6368 55.5451 34.1876C55.2119 31.2602 54.0612 28.7391 51.8883 26.7101C51.7011 26.5412 51.5677 26.3209 51.5048 26.0766C51.419 25.1757 52.1306 24.7467 52.6454 24.2319C59.487 17.3752 66.4093 10.6043 73.1449 3.63908C74.7852 1.94573 76.3751 1.20378 78.6968 1.39305C80.7825 1.56547 82.8799 1.53843 84.9605 1.3123Z" fill="#F4BE20"/>
<path d="M96.8214 130.802V111.65C101.321 107.045 105.906 102.53 110.474 97.9823C110.979 97.4776 111.267 96.6397 112.193 96.6625C116.904 96.6625 121.603 96.6625 126.292 96.6625C126.797 96.6246 127.049 96.7836 126.742 97.2984C126.457 97.7154 126.117 98.0923 125.732 98.4189C119.844 104.307 113.943 110.196 108.031 116.084C107.388 116.723 106.984 117.624 106.055 117.967C105.889 117.99 106.101 117.982 105.932 117.997C103.484 118.224 103.499 118.224 103.479 120.773C103.479 122.154 103.582 123.549 103.393 124.914C103.204 125.629 102.525 125.896 102.063 126.358C100.768 127.653 99.4838 128.962 98.164 130.234C97.8157 130.593 97.4927 131.153 96.8214 130.802Z" fill="#F4BE20"/>
<path d="M95.3073 30.7706C92.5313 33.5011 89.7553 36.2325 86.9793 38.9648C86.5301 39.4089 86.0885 39.8506 85.4879 40.0878C85.0513 39.7017 85.1548 39.1717 85.132 38.6821C85.0639 37.2512 85.0715 37.2765 83.5876 37.3724C79.8678 37.6071 76.8167 39.0582 74.6438 42.1673C74.4117 42.5004 74.1542 42.9849 73.6874 42.831C73.2205 42.677 73.3114 42.1395 73.2886 41.7332C73.223 40.5648 73.3694 39.3938 73.1953 38.2329C72.529 37.5616 71.6811 38.0083 70.9442 37.8821C70.2073 37.756 69.1297 38.2683 68.7966 37.3774C68.5089 36.6052 69.478 36.1156 69.9903 35.6109C74.4521 31.1222 78.9273 26.6453 83.416 22.1801C83.9305 21.6876 84.4071 21.157 84.8418 20.5928C84.9697 20.4297 85.1467 20.312 85.3465 20.2571C87.4058 19.9442 88.4203 18.6143 88.8418 16.6988C90.5048 15.1367 92.0821 13.4863 93.7174 11.9039C94.1464 11.4901 94.53 10.9122 95.2846 11.1241C95.2997 17.6704 95.3073 24.2192 95.3073 30.7706Z" fill="#F4BE20"/>
<path d="M65.0565 95.2644C65.271 95.012 65.4679 94.7369 65.7026 94.5073C75.3125 84.8973 84.9259 75.2907 94.5426 65.6875C94.7773 65.4528 95.0473 65.2559 95.2996 65.0439V80.1605C90.2961 85.233 85.2548 90.2684 80.1756 95.2669L65.0565 95.2644Z" fill="#F4BE20"/>
<path d="M35.8052 95.2644C35.8052 94.7294 36.2342 94.472 36.5623 94.154C45.511 85.2052 54.4624 76.2598 63.4162 67.3177C63.7342 66.9998 63.989 66.5607 64.5165 66.548C64.89 66.8383 64.9329 67.2647 64.9405 67.6811C64.9834 69.854 64.9758 72.0268 64.9405 74.1997C64.9661 74.6227 64.8278 75.0393 64.5543 75.3631C65.5764 75.9183 66.6767 75.5094 67.7366 75.6154C68.2716 75.6684 68.8142 75.6154 69.3643 75.6154C69.4527 76.4003 68.8596 76.7031 68.4786 77.0943C62.7752 82.8145 57.0651 88.5263 51.3482 94.2297C51.0252 94.5527 50.74 94.9136 50.4372 95.2568L35.8052 95.2644Z" fill="#F4BE20"/>
<path d="M84.9603 1.3123C84.5717 1.69589 84.0846 1.52933 83.6405 1.53186C81.2481 1.54952 78.8456 1.53186 76.4658 1.53186C76.0141 1.53186 75.5876 1.49653 75.204 1.90283C67.8527 9.67307 60.1152 17.0597 52.6125 24.6811C52.2415 25.0571 51.7166 25.3423 51.6888 25.9706C51.2699 26.112 50.9494 25.8697 50.6466 25.6628C47.8176 23.7171 44.5899 23.0432 41.2562 22.7833C40.8827 22.7555 40.4991 22.7833 40.1609 22.5562C39.8303 21.7562 40.5395 21.4407 40.9357 21.042C44.0927 17.8471 47.2826 14.6825 50.4573 11.5027C53.632 8.32293 56.7815 5.23906 59.8755 2.04163C60.0886 1.81702 60.3492 1.64289 60.6382 1.53199C60.9273 1.42108 61.2375 1.3762 61.5461 1.40063C64.9909 1.42082 68.4331 1.41577 71.8779 1.40063C72.2892 1.40063 72.7157 1.51167 73.1119 1.29968L84.9603 1.3123Z" fill="#F5C538"/>
<path d="M131.365 190.514C131.365 190.085 131.665 189.842 131.93 189.577C138.895 182.614 145.862 175.654 152.831 168.697C152.988 168.561 153.157 168.439 153.336 168.333C153.752 168.233 154.067 168.462 154.37 168.679C156.952 170.521 159.841 171.332 162.993 171.286C163.412 171.251 163.833 171.299 164.233 171.43C164.684 171.702 164.54 172.048 164.336 172.394C164.222 172.569 164.087 172.73 163.935 172.873C158.037 178.754 152.187 184.681 146.242 190.514H131.365Z" fill="#F4BE20"/>
<path d="M15.8864 22.4148C15.8864 21.9858 16.2119 21.7536 16.4743 21.4887C22.9887 14.9542 29.4979 8.41796 36.0022 1.88009C36.411 1.46874 36.8299 1.54697 37.264 1.54697C39.992 1.54697 42.7175 1.54697 45.4456 1.54697C45.7711 1.54697 46.1244 1.62016 46.3818 1.31732H56.4763C56.3148 2.02898 55.7192 1.83719 55.27 1.84728C53.6322 1.88514 51.9893 1.88009 50.3591 1.84728C50.0287 1.83393 49.6995 1.89504 49.3959 2.02609C49.0923 2.15714 48.822 2.35477 48.6051 2.60437C42.2103 9.14309 35.6918 15.5632 29.2288 22.0363C28.9251 22.3904 28.5198 22.6424 28.0679 22.7581C24.3885 22.9498 20.709 22.8237 17.0295 22.8287C16.6081 22.8312 16.1791 22.7883 15.8864 22.4148Z" fill="#F5C538"/>
<path d="M146.241 190.514C146.241 189.928 146.731 189.658 147.077 189.312C152.567 183.816 158.059 178.322 163.554 172.831C163.899 172.485 164.379 172.212 164.396 171.629C164.649 171.173 165.123 171.107 165.585 171.036C168.404 170.605 171.039 169.694 173.363 167.993C173.532 167.869 173.708 167.756 173.89 167.652C174.885 167.084 175.081 167.165 175.357 168.24C175.41 168.442 175.455 168.649 175.488 168.856C175.644 169.845 176.192 170.282 177.216 170.267C179.356 170.236 181.507 170.267 183.639 170.267C184.23 170.267 184.82 170.251 185.332 170.62C185.406 170.774 185.332 170.857 185.189 170.872C184.936 170.89 184.684 170.872 184.432 170.872C182.13 170.892 179.576 170.294 177.603 171.107C175.68 171.899 174.357 174.135 172.762 175.735C168.233 180.261 163.705 184.784 159.178 189.305C158.832 189.65 158.355 189.921 158.342 190.503L146.241 190.514Z" fill="#F4BE20"/>
<path d="M28.4918 22.4148C31.4747 19.4067 34.4568 16.3985 37.4381 13.3904C40.903 9.91279 44.4588 6.51852 47.8102 2.93749C48.8853 1.78924 49.9326 1.4965 51.3761 1.50407C53.0694 1.50407 54.7905 1.83467 56.4687 1.30975H73.0994C72.7159 1.69587 72.2263 1.52931 71.7846 1.53183C68.6377 1.54698 65.4907 1.58988 62.3463 1.51164C61.2485 1.48641 60.5368 1.82962 59.7646 2.61195C53.5464 8.90587 47.2676 15.1417 41.0115 21.4003C40.6885 21.7259 40.3907 22.0767 40.0803 22.4098C39.669 22.8817 39.0986 22.8388 38.5661 22.8439C35.706 22.8624 32.8518 22.8624 30.0035 22.8439C29.4735 22.8464 28.9032 22.8918 28.4918 22.4148Z" fill="#F5C538"/>
<path d="M136.912 169.368C136.884 169.997 136.359 170.282 135.988 170.655C129.866 176.786 123.738 182.911 117.603 189.03C117.157 189.476 116.718 189.921 116.491 190.524H104.882C104.531 189.668 105.281 189.328 105.71 188.898C111.474 183.109 117.248 177.332 123.034 171.566C123.234 171.415 123.404 171.23 123.539 171.019C123.698 170.961 123.438 170.809 123.539 170.938C123.582 170.986 123.559 171.031 123.471 171.041C121.015 171.377 118.545 171.074 116.082 171.226C113.598 171.299 111.118 171.266 108.637 171.253C107.221 171.253 105.803 171.316 104.39 171.253C103.885 171.228 103.249 171.367 103.09 170.607C103.701 170.103 104.44 170.236 105.137 170.236C112.708 170.224 120.287 170.224 127.875 170.236C130.431 170.218 132.977 169.916 135.466 169.335C135.958 169.214 136.442 168.972 136.912 169.368Z" fill="#F4BE20"/>
<path d="M38.8261 75.5599C39.2753 75.7466 40.0022 75.3403 40.1788 75.8753C40.3378 76.3599 39.6741 76.6627 39.3233 77.0034C33.5863 82.7556 27.8433 88.5002 22.0945 94.2373C21.7715 94.5603 21.4863 94.9211 21.1835 95.2644H9.07006C8.92874 94.641 9.43599 94.366 9.76911 94.0328C15.7148 88.0737 21.6672 82.1213 27.6263 76.1757C28.0124 75.7921 28.3834 75.3933 28.9764 75.305C31.8609 75.2142 34.7429 75.2798 37.6249 75.2697C38.0539 75.2697 38.4753 75.2722 38.8261 75.5599Z" fill="#F4BE20"/>
<path d="M26.7176 1.30724C25.3801 1.81196 23.9921 1.45108 22.6294 1.51922C22.3449 1.51704 22.0632 1.57454 21.8024 1.68799C21.5416 1.80145 21.3075 1.96834 21.1152 2.17789C14.8196 8.52733 8.49451 14.8482 2.14002 21.1404C1.92439 21.3271 1.75417 21.5606 1.64223 21.8229C1.53028 22.0853 1.47958 22.3697 1.49399 22.6546C1.51922 25.0041 1.51165 27.3536 1.49399 29.7031C1.49399 30.1472 1.65802 30.6368 1.26685 31.0179C1.26685 21.4887 1.26686 11.9595 1.23657 2.42773C1.23657 1.5495 1.48894 1.27948 2.38231 1.28452C10.5134 1.30976 18.6092 1.29462 26.7176 1.30724Z" fill="#F5C538"/>
<path d="M1.28198 46.6341C1.67062 46.2505 1.50407 45.7584 1.50659 45.3168C1.52173 42.7553 1.55201 40.1938 1.50659 37.6349C1.4864 36.7238 1.77408 36.1207 2.43527 35.4847C6.31156 31.6993 10.1197 27.8457 13.9582 24.0224C14.3039 23.6767 14.5815 23.2048 15.1695 23.2073C15.2845 23.3305 15.3737 23.4754 15.4318 23.6336C15.4899 23.7918 15.5157 23.9601 15.5077 24.1284C15.5077 27.9744 15.6616 31.8255 15.437 35.669C15.2553 36.3276 14.6522 36.6254 14.2156 37.062C10.2939 40.966 6.41504 44.9105 2.45295 48.7767C2.24289 48.9784 2.07958 49.2237 1.9745 49.4953C1.86943 49.767 1.82513 50.0583 1.84475 50.3489C1.85736 51.9842 1.86998 53.617 1.84475 55.2523C1.84475 55.699 2.0113 56.2945 1.30469 56.4586L1.28198 46.6341Z" fill="#F5C538"/>
<path d="M1.51426 95.2593C1.14833 94.9767 1.2619 94.5729 1.2619 94.2145C1.2619 91.706 1.2619 89.2001 1.2619 86.6941C1.51426 83.9434 1.30985 81.1876 1.36537 78.4343C1.38304 77.6419 1.36537 76.8469 1.36537 76.0545V75.6432C1.37559 75.4978 1.41477 75.3559 1.48065 75.2259C1.54653 75.0958 1.63777 74.9803 1.74897 74.8861C5.88015 71.1435 9.65799 67.0452 13.6529 63.1664C13.8726 62.9176 14.1277 62.7025 14.41 62.5279C14.8819 62.2755 15.2125 62.3941 15.374 62.9216C15.5582 66.5278 15.5355 70.1316 15.3917 73.7353C15.2554 74.3435 14.8011 74.7296 14.3822 75.141C10.3999 79.0879 6.49591 83.1156 2.44549 87.002C2.22199 87.2183 2.04753 87.48 1.9339 87.7696C1.82027 88.0591 1.77011 88.3696 1.78683 88.6802C1.74393 90.7672 1.91806 92.8593 1.69346 94.9464C1.64654 95.0575 1.58636 95.1626 1.51426 95.2593Z" fill="#F4BE20"/>
<path d="M1.51428 75.3681V75.6205C1.44109 75.7315 1.36538 75.7315 1.28967 75.6205C1.28967 69.2273 1.28967 62.84 1.28967 56.4586C1.7944 55.0782 1.6001 53.6296 1.47392 52.2492C1.2796 50.1091 1.97863 48.6278 3.57104 47.1565C7.1445 43.8506 10.5009 40.3099 13.9532 36.8727C14.299 36.527 14.5766 36.0525 15.1671 36.0576C15.281 36.1804 15.3694 36.3246 15.427 36.4819C15.4847 36.6392 15.5104 36.8063 15.5028 36.9737C15.5028 40.3402 15.6516 43.7092 15.4296 47.0682C15.2756 47.6688 14.8214 48.0574 14.4201 48.4713C10.5312 52.3577 6.665 56.2643 2.74076 60.1103C2.44883 60.3752 2.21866 60.7011 2.06648 61.0647C1.91429 61.4284 1.8438 61.8211 1.86001 62.215C1.88777 66.0004 1.86001 69.7657 1.86001 73.541C1.84992 74.1719 1.90796 74.8104 1.51428 75.3681Z" fill="#F5C538"/>
<path d="M173.222 190.514C174.173 189.519 175.112 188.51 176.083 187.536C180.485 183.124 184.876 178.703 189.322 174.337C190.216 173.459 190.837 172.601 190.627 171.309C190.577 170.993 190.544 170.63 190.849 170.375C190.849 176.684 190.849 182.973 190.887 189.272C190.887 190.281 190.604 190.556 189.608 190.534C184.139 190.496 178.683 190.516 173.222 190.514Z" fill="#F4BE20"/>
<path d="M116.465 170.913H123.872C123.733 171.491 123.307 171.725 122.994 172.038C117.274 177.768 111.548 183.497 105.816 189.224C105.442 189.598 104.915 189.883 104.89 190.514H97.0663C96.9427 189.9 97.4323 189.618 97.7704 189.282C103.593 183.447 109.42 177.619 115.252 171.796C115.591 171.421 116.004 171.121 116.465 170.913Z" fill="#F4BE20"/>
<path d="M1.51416 95.2593V95.0221C1.78046 94.547 2.11268 94.112 2.50091 93.73C8.32712 87.9189 14.15 82.1037 19.9694 76.2842C20.3833 75.8703 20.7745 75.416 21.4054 75.3126C23.3536 75.2192 25.2994 75.2772 27.2451 75.2747C27.6918 75.2747 28.1712 75.2369 28.5069 75.6659C23.7574 80.4355 19.0096 85.2077 14.2635 89.9824C12.5273 91.7313 10.8163 93.5029 9.09262 95.2669L1.51416 95.2593Z" fill="#F4BE20"/>
<path d="M96.8214 170.865V150.706C98.4921 148.881 100.291 147.173 102.06 145.457C102.489 145.04 103.05 144.649 103.413 145.593C103.615 146.804 103.524 148.023 103.514 149.237C103.476 154.353 103.633 159.47 103.438 164.583C103.379 164.876 103.227 165.142 103.004 165.34C101.253 166.908 99.6655 168.646 97.957 170.272C97.6567 170.562 97.3918 171.016 96.8214 170.865Z" fill="#F4BE20"/>
<path d="M103.131 145.167C102.505 145.187 102.245 145.732 101.849 146.078C100.138 147.577 98.8354 149.517 96.8367 150.706V130.802C97.4625 130.779 97.725 130.237 98.1187 129.891C99.8297 128.392 101.147 126.451 103.133 125.26C103.602 125.73 103.537 126.34 103.539 126.918C103.553 132.448 103.553 137.978 103.539 143.509C103.524 144.086 103.59 144.697 103.131 145.167Z" fill="#F4BE20"/>
<path d="M116.465 170.913C115.146 172.263 113.841 173.628 112.508 174.95C107.673 179.796 102.833 184.636 97.9874 189.471C97.6643 189.794 97.3792 190.158 97.0738 190.501C96.6953 190.231 96.8215 189.822 96.8215 189.464C96.8215 187.208 96.8215 184.951 96.8215 182.693C97.0674 182.255 97.3703 181.852 97.7224 181.494C100.968 178.264 104.206 175.029 107.438 171.788C107.775 171.412 108.185 171.111 108.645 170.902L116.465 170.913Z" fill="#F4BE20"/>
<path d="M80.1807 95.2618C80.1807 94.7798 80.5491 94.53 80.8393 94.2398C85.3162 89.7612 89.7957 85.2843 94.2776 80.809C94.5704 80.5188 94.8202 80.1504 95.3047 80.1554C95.3047 84.8468 95.3047 89.5383 95.3401 94.2272C95.3401 95.0524 95.0877 95.3073 94.2625 95.2997C89.5685 95.2618 84.8746 95.2694 80.1807 95.2618Z" fill="#F4BE20"/>
<path d="M126.822 96.7887H111.696C111.211 97.2101 110.613 97.1874 110.03 97.1874C106.182 97.1874 102.335 97.1874 98.487 97.1874C97.904 97.1874 97.3059 97.2152 96.8214 96.7836C97.1041 96.4152 97.5104 96.5313 97.8712 96.5313C127.11 96.5313 156.349 96.5313 185.587 96.5313C185.673 96.5313 185.757 96.5313 185.84 96.5439C187.387 96.7962 188.949 96.5439 190.498 96.6802C190.917 97.1723 190.453 97.4574 190.196 97.7174C188.029 99.9281 185.841 102.115 183.634 104.279C183.384 104.568 183.031 104.749 182.65 104.784C182.525 104.786 182.4 104.771 182.279 104.741C179.039 103.862 177.176 105.19 176.861 108.599C176.783 109.424 176.947 110.265 176.684 111.077C176.273 111.582 176.048 112.377 175.122 112.054C174.91 111.718 174.925 111.332 174.87 110.959C174.577 108.688 173.29 107.713 171.054 108.021C170.574 108.087 169.943 108.526 169.726 107.64C169.535 106.848 170.06 105.947 170.817 105.798C171.359 105.727 171.906 105.705 172.452 105.735C174.12 105.722 174.133 105.707 174.062 104.029C174.145 103.206 174.733 102.699 175.261 102.164C176.818 100.587 178.408 99.0397 179.912 97.2656C175.117 97.1117 170.378 97.0991 165.623 97.1218C160.677 97.1975 155.733 97.1672 150.789 97.142C147.589 97.1647 144.387 97.1874 141.199 97.142C137.008 97.1924 132.813 97.1596 128.622 97.1596C127.996 97.1924 127.337 97.2833 126.822 96.7887Z" fill="#F4BE20"/>
<path d="M96.8214 96.7836H111.696C111.696 97.2706 111.332 97.5179 111.042 97.8107C106.646 102.207 102.249 106.6 97.851 110.992C97.5608 111.284 97.3085 111.653 96.8239 111.645C96.8223 106.696 96.8214 101.742 96.8214 96.7836Z" fill="#F4BE20"/>
<path d="M108.647 170.915C104.786 174.925 100.872 178.882 96.8239 182.705V170.865C98.5223 169.207 100.216 167.549 101.924 165.901C102.272 165.563 102.537 165.083 103.118 165.07C103.744 166.849 103.756 168.786 103.151 170.572C103.794 171.175 104.574 170.802 105.286 170.849C106.411 170.928 107.527 170.897 108.647 170.915Z" fill="#F4BE20"/>
<path d="M190.849 145.676C190.461 146.06 190.627 146.547 190.625 146.989C190.609 149.538 190.602 152.086 190.625 154.638C190.637 154.901 190.587 155.163 190.48 155.404C190.373 155.645 190.21 155.857 190.006 156.023C188.363 157.57 186.796 159.195 185.189 160.783C184.871 161.098 184.616 161.527 184.086 161.54C183.957 161.432 183.854 161.295 183.787 161.14C183.72 160.985 183.69 160.817 183.7 160.649C183.685 156.765 183.518 152.879 183.786 148.997C185.451 147.014 187.377 145.278 189.224 143.468C189.981 142.731 190.347 142.002 190.294 140.945C190.221 139.483 190.251 138.015 190.294 136.551C190.294 136.099 190.148 135.509 190.847 135.342C190.847 138.791 190.847 142.236 190.849 145.676Z" fill="#F4BE20"/>
<path d="M190.847 135.347C190.342 136.251 190.519 137.263 190.657 138.156C191.162 141.343 190.092 143.763 187.516 145.656C186.617 146.315 185.908 147.231 185.103 148.023C184.813 148.311 184.57 148.684 184.093 148.692C183.962 148.585 183.86 148.447 183.796 148.291C183.732 148.134 183.709 147.964 183.728 147.796C183.838 144.75 183.526 141.704 182.799 138.744C182.907 138.075 183.397 137.659 183.836 137.23C185.668 135.39 187.478 133.53 189.355 131.741C189.664 131.463 189.907 131.121 190.067 130.738C190.228 130.356 190.302 129.942 190.284 129.528C190.269 125.217 190.244 120.909 190.284 116.599C190.279 116.316 190.347 116.035 190.483 115.786C190.5 115.755 190.522 115.728 190.55 115.707C190.577 115.685 190.609 115.669 190.643 115.66C190.677 115.651 190.712 115.65 190.747 115.655C190.782 115.661 190.815 115.674 190.844 115.693C190.844 122.241 190.845 128.792 190.847 135.347Z" fill="#F4BE20"/>
<path d="M95.3071 11.1166C93.316 12.3002 92.0264 14.2333 90.3129 15.7273C89.9192 16.073 89.6618 16.608 89.051 16.6585C88.5463 16.2623 88.5463 15.6238 88.3217 15.0989C87.6757 13.6276 86.4139 13.0219 84.8543 13.4232C84.3697 13.5468 83.7186 14.1475 83.4713 13.1254C83.2719 12.2951 83.7918 11.2579 84.5035 11.1065C85.1167 10.9677 85.7502 11.0459 86.376 11.0283C86.9135 11.0131 87.4763 11.1014 87.9079 10.6598C88.4126 10.044 88.0593 9.70336 87.5041 9.42828C87.2997 9.04217 87.5621 8.78223 87.7842 8.55258C89.9394 6.34693 92.1189 4.16568 94.3229 2.00882C94.5349 1.79936 94.8403 1.73879 95.0623 1.547H95.3147C95.3097 4.73518 95.3071 7.92504 95.3071 11.1166Z" fill="#F4BE20"/>
<path d="M190.844 115.681H190.617C190.153 115.209 190.221 114.598 190.221 114.022C190.221 110.971 190.183 107.92 190.239 104.867C190.183 102.777 190.239 100.685 190.218 98.593C190.195 98.0464 190.333 97.5051 190.615 97.036C189.825 96.5161 188.944 96.8972 188.114 96.7836C187.357 96.6801 186.559 97.0158 185.842 96.5615C187.187 96.5615 188.533 96.5792 189.88 96.5262C190.66 96.4934 190.89 96.7937 190.89 97.5483C190.847 103.592 190.849 109.636 190.844 115.681Z" fill="#105435"/>
<path d="M1.28711 75.6205H1.51424C1.51424 78.8734 1.51424 82.1289 1.51424 85.3844C1.51424 85.826 1.67575 86.3106 1.29216 86.6942C1.29048 83.0029 1.28879 79.3117 1.28711 75.6205Z" fill="#105435"/>
<path d="M309.687 49.9628C309.687 52.7589 309.053 54.9671 307.287 56.7286C303.898 60.1077 298.472 59.1513 296.506 54.798C295.879 53.4431 295.542 51.9725 295.516 50.4799C295.489 48.9874 295.774 47.5057 296.352 46.1294C297.556 43.1187 300.082 41.5591 303.135 41.7862C306.116 42.0083 308.518 44.1508 309.346 47.3382C309.578 48.1935 309.693 49.0765 309.687 49.9628Z" fill="#003638"/>
<path d="M299.55 75.5246C302.026 75.4723 304.499 75.2895 306.956 74.9769C308.29 74.7993 309.638 74.7612 310.979 74.8634C314.151 75.1334 315.6 77.9296 314.007 80.693C313.061 82.3283 311.557 83.3201 309.828 83.951C305.412 85.5636 300.95 85.7629 296.574 83.9207C293.021 82.4242 292.087 78.8558 294.318 75.9889C294.742 75.4463 295.168 75.1965 295.913 75.2974C297.107 75.4615 298.333 75.4564 299.55 75.5246Z" fill="#003638"/>
<path d="M223.162 150.403C223.162 152.543 223.242 154.693 223.142 156.826C223.005 159.748 222.034 162.317 219.126 163.544C216.038 164.846 212.976 164.78 210.223 162.61C208.02 160.876 206.824 158.499 206.163 155.836C205.153 151.761 205.095 147.685 206.506 143.693C208.923 136.856 217.186 135.314 222.056 140.743C222.775 141.521 223.168 142.545 223.154 143.604V150.403H223.162Z" fill="#003638"/>
<path d="M161.873 60.9784C161.873 62.7777 161.951 64.5821 161.404 66.3411C160.899 67.9486 159.872 69.0439 158.262 69.483C156.275 70.0693 154.159 70.0474 152.185 69.4199C149.689 68.5997 148.117 66.5606 147.98 64.0269C147.814 60.9456 148.955 58.7879 151.46 57.6371C154.726 56.1381 158.095 56.5974 161.464 57.203C161.984 57.2964 161.868 57.6497 161.87 57.9601C161.883 58.962 161.875 59.9714 161.873 60.9784Z" fill="#003638"/>
<path d="M118.51 51.6662C116.28 51.6662 114.053 51.6662 111.827 51.6662C110.686 51.6662 110.169 51.1236 110.219 49.9375C110.399 45.7306 113.359 42.3414 117.321 41.8619C121.785 41.3294 125.545 43.8379 126.673 48.1029C126.706 48.224 126.759 48.3401 126.785 48.4637C127.352 51.2145 126.981 51.6713 124.183 51.6763H118.51V51.6662Z" fill="#003638"/>
<path d="M64.5494 75.363C64.5292 72.4188 64.5191 69.4805 64.5191 66.548V52.4409C64.0901 51.9488 64.1633 51.3432 64.1633 50.7653C64.1633 47.7924 64.1305 44.8221 64.1784 41.8493C64.1313 40.8095 64.1355 39.769 64.191 38.7276C64.2339 37.9377 64.6503 37.491 65.4529 37.4657C66.533 37.4279 67.6106 37.3194 68.6856 37.5818C69.8339 37.8645 71.0099 37.6348 72.1682 37.7105C72.673 37.7433 73.1777 37.5793 73.6395 37.8418V42.8385C74.1821 42.6038 74.2856 42.1269 74.5152 41.7887C77.0035 38.137 80.7334 37.1225 84.8444 36.8929C85.3491 36.8651 85.4703 37.1452 85.4677 37.5919C85.4677 38.4247 85.498 39.26 85.5157 40.0954C85.498 41.7685 85.435 43.4442 85.4804 45.1174C85.5031 45.9275 85.2785 46.1394 84.4507 46.1899C81.0438 46.3893 77.917 47.3079 75.7392 50.1848C74.5637 51.6741 73.9031 53.5045 73.8565 55.4012C73.5083 56.1582 73.6521 56.9633 73.6496 57.7456C73.632 63.2269 73.6219 68.7082 73.6496 74.1895C73.6496 75.1082 73.5108 75.4943 72.4559 75.4514C69.8187 75.3479 67.1866 75.3832 64.5494 75.363Z" fill="white"/>
<path d="M15.1568 47.3937C15.283 43.615 15.283 39.8363 15.1568 36.0576C15.278 31.7758 15.278 27.4924 15.1568 23.2073C15.2123 22.7707 15.3057 22.3694 15.8862 22.4148H40.0902C42.8435 22.5511 45.5589 22.8388 48.1381 23.929C49.415 24.4691 50.5456 25.2287 51.6863 25.9807C54.596 28.5043 55.8225 31.7851 55.9966 35.5554C56.5216 37.6348 55.8402 39.5149 54.9266 41.3042C53.3544 44.3855 50.591 45.8265 47.9009 46.4297C50.851 46.5508 53.4528 48.2997 55.6459 50.8309C56.9279 52.5974 57.9171 54.5053 58.331 56.663C58.4168 57.0995 58.5834 57.5538 58.273 57.9803C58.3537 60.6881 58.2074 63.3733 57.3367 65.965C55.9992 69.9499 53.1651 72.4381 49.2989 73.8665C46.7248 74.8154 44.0321 75.141 41.3218 75.358C40.489 75.4236 39.6537 75.4413 38.8209 75.4816C34.3869 75.4993 29.9528 75.5473 25.5213 75.4665C22.5939 75.4135 19.6893 75.8299 16.7669 75.7189C16.2268 75.6987 15.6716 75.787 15.1745 75.4867C14.7354 75.0274 14.8464 74.5656 15.1593 74.0987C15.2855 70.2291 15.2855 66.3671 15.1593 62.5127C14.7732 62.119 14.7328 61.6168 14.7303 61.1096C14.7118 57.0516 14.7118 52.9928 14.7303 48.9331C14.702 48.3873 14.8517 47.8471 15.1568 47.3937Z" fill="white"/>
<path d="M58.273 57.9803C57.8961 55.457 56.9286 53.0584 55.4491 50.9798C55.1412 50.3792 55.5778 50.0334 55.921 49.6877C58.305 47.2802 60.7016 44.8861 63.1108 42.5055C63.4868 42.1345 63.8679 41.6853 64.5089 41.8594C64.5089 45.3925 64.5089 48.9197 64.5089 52.441C63.0452 53.8778 61.5815 55.312 60.1178 56.7437C59.5778 57.2737 59.0251 57.7734 58.273 57.9803Z" fill="#F4BE20"/>
<path d="M15.177 75.2747C15.6514 75.5271 16.1662 75.4261 16.6634 75.4261C24.0475 75.448 31.4333 75.4665 38.8208 75.4817V75.5599L28.4891 75.6659H20.9182C19.2047 76.3195 17.4432 76.0167 15.6969 75.9182C15.4243 75.8905 14.9625 75.7946 15.177 75.2747Z" fill="#F4BE20"/>
<path d="M103.151 170.572C103.141 168.74 103.13 166.906 103.118 165.07V125.26C103.138 123.143 103.221 121.02 103.151 118.906C103.118 117.881 103.464 117.606 104.413 117.699C105.076 117.729 105.741 117.718 106.404 117.667C106.846 117.422 107.344 117.295 107.85 117.298C112.213 117.298 116.576 117.25 120.937 117.326C123.436 117.288 125.934 117.326 128.432 117.301C129.318 117.301 130.164 117.513 131.029 117.593C134.951 118.033 138.421 119.433 141.172 122.363C143.915 125.596 144.647 129.338 143.965 133.434C143.208 137.305 140.98 139.907 137.283 141.275C136.705 141.49 136.132 141.692 135.516 141.611C138.153 141.845 140.346 143.057 142.33 144.71C143.769 146.09 144.889 147.768 145.611 149.626C146.873 152.725 146.812 155.912 146.257 159.13C146.186 159.539 146.095 159.958 145.714 160.223C144.611 163.675 142.709 166.501 139.405 168.197C138.595 168.614 137.757 168.974 136.932 169.358C135.165 169.762 133.422 170.211 131.612 170.418C129.818 170.609 128.014 170.7 126.209 170.69C118.891 170.716 111.595 170.69 104.289 170.69C103.908 170.673 103.528 170.633 103.151 170.572Z" fill="white"/>
<path d="M183.013 138.706C184.275 141.936 183.982 145.336 184.088 148.692V161.545C184.01 164.636 183.763 167.75 185.333 170.615C182.357 170.645 179.382 170.668 176.406 170.713C175.829 170.713 175.601 170.428 175.435 169.941C175.121 169.111 174.959 168.231 174.955 167.344C172.896 168.833 170.86 170.027 168.561 170.741C167.193 171.167 165.785 171.284 164.397 171.632C162.484 171.612 160.573 171.632 158.698 171.127C156.738 170.573 154.912 169.621 153.335 168.331C150.219 165.144 149.346 161.308 150.055 157.012C149.858 156.021 150.383 155.223 150.812 154.418C152.498 151.198 155.395 149.53 158.673 148.361C162.178 147.352 165.795 146.847 169.353 146.07C170.786 145.762 172.215 145.437 173.643 145.083C174.453 144.881 174.713 144.397 174.605 143.602C174.38 141.967 173.578 140.725 172.008 140.2C170.095 139.562 168.114 139.221 166.08 139.63C165.547 139.741 164.995 139.718 164.472 139.882C162.627 140.447 161.462 141.58 161.239 143.587C161.078 145.038 160.697 145.318 159.269 145.131C157.936 144.957 156.599 145.048 155.264 145.025C154.506 145.025 153.767 144.949 153.018 144.866C151.9 144.745 151.334 144.235 151.463 143.077C151.988 138.113 154.855 135.032 159.372 133.283C160.666 132.785 162.008 132.424 163.377 132.205C166.875 131.761 170.417 131.779 173.911 132.261C176.147 132.813 178.405 133.323 180.247 134.842C181.494 135.885 182.723 136.96 183.013 138.706Z" fill="white"/>
<path d="M151.736 142.903C151.44 144.233 152.079 144.561 153.308 144.568C155.519 144.568 157.732 144.72 159.943 144.841C160.606 144.876 160.864 144.609 160.836 143.978C160.697 140.841 163.44 139.122 166.035 139.345C166.438 139.266 166.938 139.034 167.195 139.443C167.506 139.933 167.031 140.298 166.718 140.611C164.018 143.304 161.373 146.055 158.597 148.672C156.674 149.472 154.812 150.335 153.23 151.761C151.647 153.187 150.706 155.024 150.05 157.015C148.753 157.941 147.796 159.223 146.618 160.27C146.335 160.523 145.952 161.199 145.704 160.223C145.838 158.741 146.209 157.295 146.257 155.794C146.304 153.636 145.962 151.488 145.247 149.452C147.292 147.811 148.95 145.767 150.908 144.038C151.292 143.71 151.1 143.014 151.736 142.903Z" fill="#F4BE20"/>
<path d="M64.5189 41.8594C64.0271 42.0959 63.5831 42.421 63.2091 42.8184C60.8723 45.1737 58.5303 47.5174 56.1833 49.8492C55.8603 50.1722 55.4666 50.4549 55.4591 50.9798C53.2459 48.542 50.6036 46.9016 47.2321 46.576C47.3128 46.4473 47.3633 46.2732 47.4491 46.253C53.1171 44.9332 55.7947 41.231 56.0067 35.5554C56.5871 35.5327 56.8546 35.0506 57.2004 34.7125C62.0912 29.8335 66.9786 24.9545 71.8626 20.0754C72.1857 19.7524 72.5491 19.4723 72.8948 19.172C73.2254 19.0584 73.4576 19.2628 73.6847 19.4244C75.1232 20.5171 76.6727 20.3556 78.207 19.7474C79.4689 19.2427 79.6733 18.0263 79.8954 16.8603C80.2133 15.9216 80.7181 15.2149 81.8512 15.2881C82.1834 15.3281 82.5203 15.3016 82.8422 15.2102C83.1641 15.1188 83.4646 14.9643 83.7262 14.7556C84.0724 14.4732 84.5031 14.3145 84.9499 14.3049C85.3966 14.2953 85.8338 14.4353 86.1918 14.7027C87.0826 15.2982 87.1407 16.2345 87.017 17.1783C86.9808 17.622 86.8083 18.0437 86.5233 18.3857C86.2383 18.7276 85.8545 18.9732 85.4246 19.0887C84.7079 19.3057 84.1098 19.0458 83.6253 18.5007C83.4284 18.2811 83.3275 17.9834 83.0928 17.8042C82.9257 17.6721 82.7158 17.606 82.5032 17.6186C82.2905 17.6311 82.0899 17.7214 81.9395 17.8723C81.6165 18.155 81.8158 18.4957 82.0076 18.7758C82.4228 19.4166 83.0722 19.8695 83.8171 20.0376C84.2536 20.1385 84.7558 20.1411 84.9779 20.6559C84.9779 21.2464 84.5085 21.5215 84.1628 21.8672C79.8297 26.2079 75.4765 30.5258 71.1661 34.8917C70.409 35.6715 68.8949 36.3655 69.1472 37.3345C69.3163 37.9604 71.1258 37.4582 72.1933 37.5667C72.6727 37.6146 73.2027 37.3673 73.6191 37.8191C70.8709 37.8191 68.1252 37.8191 65.3795 37.7736C64.7334 37.7736 64.5063 37.9301 64.534 38.6014C64.5795 39.6966 64.5189 40.7793 64.5189 41.8594Z" fill="#F4BE20"/>
<path d="M81.773 15.6036C80.7232 15.4673 80.4405 16.2446 80.1326 16.9891C79.3755 16.3556 79.1232 15.3134 78.2576 14.7456C77.9371 14.5361 78.2576 14.2257 78.4923 14.0516C78.8691 13.7861 79.1835 13.4416 79.4134 13.0421C79.546 12.8064 79.6195 12.542 79.6274 12.2717C79.6353 12.0013 79.5774 11.7331 79.4588 11.4901C79.3074 11.1342 79.0046 10.8163 79.161 10.3797C79.161 9.8472 79.58 9.58222 79.8929 9.25414C82.2651 6.76333 84.8796 4.5072 87.0928 1.86244C87.4158 1.4738 87.8499 1.53185 88.2486 1.53185C90.5199 1.53185 92.7911 1.53185 95.0624 1.53185C92.9072 3.71899 90.7521 5.91539 88.5969 8.12104C88.2183 8.50463 87.865 8.91093 87.4991 9.30714C86.9212 9.90272 86.1717 9.6024 85.4979 9.69325C84.5767 9.81439 83.5951 9.39294 82.7345 10.0112C82.0531 11.3664 82.4165 12.8781 82.0834 14.2863C81.9749 14.7304 82.0834 15.2149 81.773 15.6036Z" fill="#F4BE20"/>
<path d="M79.7188 13.1229C79.4336 13.8017 78.9062 14.2282 78.1491 14.5462C79.368 14.9828 79.8954 15.8761 80.1326 16.989C80.0216 18.5638 79.4361 19.813 77.7907 20.295C75.951 20.8376 74.2576 20.6862 72.8848 19.1695C72.6324 18.4376 72.3144 17.7259 72.3801 16.926C73.7226 16.3632 74.1769 16.4439 74.9037 17.5468C75.3352 18.2029 75.8702 18.4326 76.6021 18.2509C76.8295 18.1995 77.0332 18.0734 77.1805 17.8927C77.3278 17.712 77.4102 17.4871 77.4147 17.254C77.4904 16.4162 76.91 16.1108 76.2488 15.8408C74.987 15.3134 74.9213 15.1241 75.4311 13.9052L75.416 13.9254C75.5905 13.7421 75.8216 13.623 76.0721 13.5872C77.1371 13.3348 77.5383 12.7039 77.1598 11.6415L76.8216 11.3689C76.6424 11.2672 76.4398 11.2137 76.2336 11.2137C76.0275 11.2137 75.8249 11.2672 75.6456 11.3689C75.4779 11.3878 75.3202 11.4585 75.1945 11.5711C75.0688 11.6837 74.9813 11.8327 74.9441 11.9973C74.6463 13.5342 73.6393 12.7292 72.9024 12.608C72.3725 12.5197 72.6905 12.0831 72.7763 11.8055C73.4425 9.64025 76.0368 8.68127 78.2323 9.78662C78.5508 9.96728 78.8592 10.1653 79.156 10.3797L79.7112 11.3639C79.8438 11.9424 79.8464 12.5432 79.7188 13.1229Z" fill="#FEFEFE"/>
<path d="M75.4236 13.9128C75.3983 14.7784 75.2141 15.6793 76.6349 15.6137C77.4854 15.5783 77.821 16.3354 77.821 17.0976C77.821 17.8597 77.5535 18.5209 76.7107 18.69C75.9536 18.8439 74.9744 18.8439 74.7674 18.0212C74.3838 16.4818 73.3517 16.8755 72.37 16.9335C73.1927 15.7222 74.0558 14.5563 75.4236 13.9128Z" fill="#F4BE20"/>
<path d="M77.1523 11.6415C77.9548 12.6206 77.763 13.456 76.6476 13.7538C76.2385 13.8365 75.8246 13.8938 75.4084 13.9254L77.1523 11.6415Z" fill="#115933"/>
<path d="M75.6381 11.3639C76.0317 11.0686 76.4229 10.9929 76.814 11.3639H75.6381Z" fill="#115933"/>
<path d="M121.028 117.667H106.411C106.684 117.101 107.069 116.596 107.542 116.183C113.671 110.065 119.796 103.943 125.919 97.8158C126.242 97.4927 126.527 97.1318 126.827 96.7886H141.212C141.421 97.3817 141.018 97.7552 140.674 98.0959C134.123 104.627 127.645 111.216 121.028 117.667Z" fill="#F4BE20"/>
<path d="M81.7732 15.6036C81.5209 13.8875 82.0256 12.2245 82.1467 10.5336C82.1669 10.2485 82.1997 9.96329 82.225 9.67812C84.1126 9.22891 86.0255 9.53679 87.9258 9.52165C88.5996 9.52165 88.3473 10.1753 88.2993 10.6043C88.2716 11.109 88.158 11.4775 87.4993 11.4093C86.916 11.3778 86.3313 11.3778 85.7479 11.4093C83.7517 11.4093 83.7517 11.4093 83.7947 13.4762C86.7372 12.1891 88.6703 13.3651 89.0463 16.6711C88.7384 19.2326 87.9511 20.0048 84.9681 20.6786C83.5171 20.4111 82.0256 20.1865 81.4351 18.531C81.3089 18.1777 80.8395 17.5215 81.536 17.4585C82.1392 17.3954 83.0073 16.6559 83.4691 17.7108C83.8855 18.6521 84.4962 19.1266 85.5309 18.7935C86.4773 18.4881 86.9845 17.2944 86.7044 16.0528C86.4899 15.1115 85.8867 14.6169 84.9051 14.6724C84.6249 14.6875 84.2186 14.7203 84.0925 14.8995C83.4918 15.7399 82.6414 15.6642 81.7732 15.6036Z" fill="#FEFEFE"/>
<path d="M15.1569 47.3937C15.2831 52.441 15.2831 57.4815 15.1569 62.5153C14.5689 62.5153 14.2913 62.9821 13.9456 63.3254C10.5034 66.7541 7.06787 70.1888 3.63911 73.6293C3.00855 74.2989 2.29337 74.8834 1.51168 75.3681C1.51168 71.0098 1.53692 66.6515 1.4915 62.2932C1.46318 61.8284 1.54144 61.3633 1.72033 60.9333C1.89921 60.5034 2.17398 60.12 2.52365 59.8125C6.43527 56.027 10.2561 52.1356 14.1172 48.2896C14.4428 47.9666 14.8036 47.6915 15.1569 47.3937Z" fill="#F4BE20"/>
<path d="M15.177 75.2747C15.4117 75.8047 15.8912 75.6028 16.2748 75.6129C17.8192 75.6457 19.3662 75.6457 20.9132 75.6583C19.5656 77.0387 18.2331 78.4343 16.8754 79.792C12.1057 84.5717 7.3302 89.3448 2.54877 94.1111C2.22575 94.4341 1.86235 94.7192 1.51661 95.0221C1.51661 93.0915 1.57215 91.1609 1.49644 89.2354C1.44849 88.0417 1.74879 87.2165 2.69011 86.3383C5.8724 83.3579 8.88812 80.2008 11.9871 77.1346C13.0294 76.105 13.9682 74.9693 15.1619 74.1063C15.2695 74.4877 15.2747 74.8907 15.177 75.2747Z" fill="#F4BE20"/>
<path d="M143.708 133.553C143.867 131.761 143.985 129.972 143.645 128.185C143.216 126.095 142.289 124.14 140.944 122.484C140.566 121.727 141.24 121.422 141.608 121.043C143.723 118.888 145.868 116.768 148.003 114.633C153.696 108.942 159.389 103.25 165.08 97.5583C165.333 97.2934 165.638 97.0536 165.906 96.7886C170.47 96.7886 175.036 96.7886 179.604 96.7886C179.955 96.7886 180.457 96.5792 180.613 97.0006C180.77 97.4221 180.288 97.6265 180.04 97.8763C178.451 99.4864 176.852 101.085 175.245 102.671C174.808 103.062 174.458 103.541 174.218 104.077C173.272 104.751 172.199 104.405 171.19 104.43C168.899 104.486 168.901 104.45 168.578 106.717C168.427 107.792 168.326 108.877 168.126 109.942C168.081 110.063 168.036 110.194 167.995 110.31C167.743 110.913 167.276 111.32 166.832 111.774C159.687 118.919 152.536 126.061 145.381 133.2C145.055 133.525 144.765 133.911 144.334 134.09C143.844 134.302 143.508 134.219 143.708 133.553Z" fill="#F4BE20"/>
<path d="M165.906 96.7886C165.883 97.4195 165.356 97.7047 164.982 98.0757C157.282 105.786 149.577 113.493 141.868 121.195C141.497 121.568 140.972 121.853 140.945 122.484C138.307 119.786 134.999 118.497 131.355 117.906C130.31 117.624 130.237 117.434 130.878 116.645C131.13 116.352 131.4 116.102 131.665 115.834C137.858 109.599 144.145 103.456 150.277 97.1596C150.436 97.0219 150.605 96.8954 150.782 96.7811L165.906 96.7886Z" fill="#F4BE20"/>
<path d="M151.736 142.903C151.584 143.693 151.135 144.256 150.542 144.806C149.076 146.166 147.698 147.622 146.274 149.025C146.004 149.293 145.792 149.782 145.265 149.452C144.478 147.79 143.434 146.263 142.171 144.927C144.341 142.709 146.555 140.528 148.753 138.335C156.538 130.562 164.298 122.762 172.109 115.012C173.623 114.565 174.38 113.306 175.241 112.155L176.465 111.146C176.575 111.205 176.67 111.29 176.741 111.394C176.812 111.497 176.858 111.616 176.873 111.741C177.126 113.366 178.155 114.373 179.556 115.08C179.902 115.923 179.193 116.294 178.756 116.733C174.272 121.242 169.776 125.739 165.267 130.224C164.515 130.948 163.805 131.715 163.14 132.521C161.121 133.025 159.102 133.53 157.285 134.598C154.057 136.468 152.24 139.239 151.736 142.903Z" fill="#F4BE20"/>
<path d="M150.777 96.7886C150.549 97.3968 150.108 97.841 149.659 98.2877C143.54 104.4 137.416 110.512 131.289 116.624C130.797 117.114 130.386 117.523 131.357 117.901C127.92 117.551 124.47 117.81 121.028 117.649C121.056 117.071 121.533 116.804 121.879 116.46C127.935 110.388 134.003 104.323 140.081 98.265C140.528 97.8183 140.97 97.3766 141.197 96.771L150.777 96.7886Z" fill="#F4BE20"/>
<path d="M190.615 97.0385V104.849C188.772 106.797 186.829 108.657 184.934 110.545C184.553 110.921 184.119 111.188 183.642 110.648C182.741 108.344 180.969 108.193 178.915 108.743C178.574 108.589 178.509 108.284 178.474 107.961C178.489 106.951 178.913 106.174 179.816 105.735C180.414 105.447 181.078 105.46 181.56 105.972C182.004 106.444 182.514 106.835 183.074 106.409C183.634 105.982 182.933 105.543 182.822 105.104C182.762 104.95 182.741 104.783 182.761 104.619C184.949 102.782 186.819 100.619 188.883 98.6586C189.439 98.111 190.034 97.576 190.615 97.0385Z" fill="#F4BE20"/>
<path d="M179.031 108.635C181.118 107.431 182.844 108.15 183.866 110.653C184.5 112.168 184.119 113.487 182.971 114.537C182.007 115.428 180.851 115.905 179.523 115.214C177.408 114.681 176.788 113.026 176.46 111.151C176.54 109.985 176.399 108.819 176.672 107.655C177.444 104.344 179.687 103.206 182.748 104.627C182.942 104.841 183.111 105.075 183.253 105.326C183.46 105.783 184.089 106.472 183.579 106.699C183.069 106.926 182.15 107.491 181.532 106.447C180.995 105.538 179.912 105.601 179.246 106.467C178.933 106.864 178.749 107.348 178.718 107.852C178.683 108.163 178.365 108.584 179.031 108.635Z" fill="#FEFEFE"/>
<path d="M175.236 112.155C175.048 112.885 174.668 113.551 174.136 114.083C173.603 114.616 172.937 114.996 172.207 115.183C170.206 115.963 168.021 115.075 167.339 113.19C167.087 112.501 167.014 111.855 167.945 111.61C168.795 111.534 169.595 111.514 170.15 112.385C170.587 113.071 171.266 113.275 171.995 112.834C172.636 112.448 172.836 110.997 172.374 110.31C171.912 109.624 171.198 109.606 170.481 109.874C170.09 110.017 169.873 110.452 169.439 110.547C169.313 110.566 169.186 110.566 169.06 110.547C168.611 110.373 167.995 110.626 167.713 110.028C167.95 108.382 168.24 106.747 168.399 105.091C168.472 104.334 168.735 104.11 169.472 104.125C171.056 104.158 172.641 104.102 174.226 104.082C174.905 105.533 174.61 106.078 173.143 106.081H171.882C170.075 106.081 170.075 106.081 169.984 108.062C170.425 107.881 170.88 107.735 171.344 107.625C173.403 107.305 174.981 108.599 175.203 110.775C175.253 111.231 175.228 111.696 175.236 112.155Z" fill="#FDFEFD"/>
<path d="M179.523 115.211C182.97 115.413 184.232 113.25 183.866 110.651C184.414 110.987 184.606 110.457 184.876 110.202C186.336 108.768 187.784 107.324 189.219 105.869C189.61 105.436 190.088 105.092 190.622 104.859C190.622 108.47 190.622 112.081 190.622 115.693C190.622 115.945 190.622 116.198 190.622 116.45C190.37 116.955 189.898 117.243 189.517 117.624C184.909 122.191 180.315 126.774 175.735 131.37C175.266 131.837 175.087 132.7 174.166 132.609C170.494 132.167 166.819 132.023 163.142 132.533C163.049 131.827 163.599 131.494 164.003 131.09C168.89 126.196 173.782 121.303 178.678 116.412C179.013 116.057 179.493 115.789 179.523 115.211Z" fill="#F4BE20"/>
<path d="M174.158 132.599C174.966 132.225 175.261 131.37 175.851 130.784C180.088 126.607 184.3 122.401 188.49 118.166C189.117 117.495 189.832 116.91 190.615 116.427C190.615 120.909 190.615 125.391 190.63 129.873C190.648 130.217 190.59 130.56 190.459 130.878C190.328 131.196 190.128 131.48 189.873 131.711C187.561 134.01 185.113 136.182 183.013 138.693C181.201 135.022 177.921 133.462 174.158 132.599Z" fill="#F4BE20"/>
<path d="M88.2991 10.6043C88.4076 9.86234 88.2385 9.46866 87.3401 9.53932C85.6392 9.6756 83.9257 9.41062 82.2247 9.67812C82.6664 9.06488 83.3074 9.39295 83.8499 9.36519C85.0613 9.30715 86.2777 9.32986 87.4941 9.31724C88.453 9.31472 88.8089 9.68821 88.2991 10.6043Z" fill="#F4BE20"/>
<path d="M29.905 43.6638C28.5675 43.6915 27.23 43.7067 25.895 43.7571C25.3069 43.7773 25.2136 43.5048 25.2161 43.0001C25.2313 39.0203 25.2161 35.0405 25.2161 31.0608C25.2161 30.6419 25.254 30.3239 25.8041 30.3365C30.4526 30.4375 35.1112 30.1069 39.7522 30.5889C39.9559 30.6357 40.1527 30.7086 40.3377 30.8059C40.7112 31.563 40.0298 31.8658 39.6613 32.2393C36.5623 35.3737 33.4381 38.4777 30.3239 41.5944C30.1304 41.8153 29.9204 42.0212 29.6955 42.2102C28.8224 42.8285 29.1302 43.2726 29.905 43.6638Z" fill="#F4BE20"/>
<path d="M29.905 43.6638C29.6526 43.6487 29.4003 43.6285 29.1479 43.6184C28.4413 43.5906 28.3353 43.2726 28.7467 42.7477C28.9669 42.4951 29.2011 42.255 29.4482 42.0285C32.7962 38.6805 36.1434 35.3316 39.4897 31.9819C39.8355 31.6362 40.315 31.3687 40.3352 30.7883C43.6588 31.6362 45.3269 33.4684 45.3673 36.3125C45.0468 37.0141 44.4865 37.5238 43.9389 38.0311C41.9604 39.8733 40.2796 42.026 38.0639 43.6234C35.351 43.8607 32.628 43.7849 29.905 43.6638Z" fill="#F4BE20"/>
<path d="M40.2114 51.4037C41.5884 51.3574 42.9496 51.7078 44.1331 52.4132C44.3072 52.9886 43.8353 53.2485 43.5325 53.5513C39.4812 57.6211 35.4232 61.685 31.3585 65.743C31.0085 66.0396 30.6392 66.3127 30.2532 66.5606C28.6571 66.6855 27.0536 66.6813 25.4583 66.548C25.2059 65.6042 25.3952 64.6427 25.3397 63.6913C25.3119 63.2219 25.6097 62.9342 25.9201 62.6389C29.571 59.1311 33.152 55.5534 36.6632 51.9059C36.9963 51.5602 37.3117 51.2624 37.8316 51.2977C38.6291 51.3583 39.4266 51.2069 40.2114 51.4037Z" fill="#F4BE20"/>
<path d="M30.2533 66.5708C30.9473 65.5613 31.9012 64.8042 32.7542 63.9386C36.2343 60.4333 39.7371 56.9532 43.2273 53.4555C43.5503 53.1324 43.8304 52.769 44.1332 52.4233C44.9773 52.7569 45.7219 53.3011 46.2962 54.0039C46.8704 54.7067 47.2552 55.5448 47.414 56.4384C47.6663 56.9734 47.3231 57.3267 47.0051 57.6472C44.2325 60.4484 41.4456 63.237 38.6444 66.013C38.392 66.2654 38.0513 66.326 37.8141 66.5708C35.2955 66.6919 32.7752 66.6919 30.2533 66.5708Z" fill="#F4BE20"/>
<path d="M40.2114 51.4037C38.3692 51.1186 37.1073 51.863 35.8051 53.2283C32.5673 56.6251 29.3295 60.0421 25.7889 63.1335C25.4532 63.4263 25.4684 63.7897 25.4684 64.1657C25.4684 64.9632 25.4684 65.7606 25.4684 66.5581C24.999 66.3209 25.2387 65.8893 25.2387 65.5613C25.2185 61.1273 25.2538 56.6932 25.2034 52.2592C25.2034 51.3659 25.4406 51.1539 26.3138 51.164C30.4147 51.2144 34.5156 51.1867 38.619 51.1993C39.154 51.1993 39.7092 51.1236 40.2114 51.4037Z" fill="#F4BE20"/>
<path d="M37.8165 66.5708C40.5749 63.4869 43.6385 60.7059 46.5079 57.7381C46.8764 57.3595 47.3937 57.0693 47.4164 56.4435C48.6782 60.7488 47.6965 65.8112 40.9408 66.5228C39.9086 66.6263 38.8613 66.76 37.8165 66.5708Z" fill="#F4BE20"/>
<path d="M38.0713 43.6234C40.3981 41.0796 42.846 38.6544 45.3747 36.3049C45.8188 40.7263 42.8485 43.6915 38.0713 43.6234Z" fill="#F4BE20"/>
<path d="M168.177 111.887C167.546 111.93 167.311 112.183 167.516 112.854C167.909 114.146 169.078 115.072 170.592 115.171C171.13 115.206 171.67 115.186 172.21 115.191C171.935 115.504 171.677 115.834 171.382 116.127C162.08 125.429 152.775 134.727 143.468 144.021C143.092 144.394 142.794 144.907 142.166 144.927C140.107 143.223 137.795 142.083 134.946 141.813C135.11 141.686 135.289 141.578 135.478 141.492C139.819 140.495 142.618 137.911 143.708 133.553C143.763 133.805 143.796 134.111 144.16 133.934C144.372 133.802 144.563 133.638 144.725 133.447C152.25 125.93 159.774 118.41 167.296 110.888C167.434 110.729 167.559 110.561 167.672 110.383C168.167 110.203 168.709 110.196 169.209 110.363C169.305 111.166 168.588 111.423 168.177 111.887Z" fill="#F4BE20"/>
<path d="M120.225 139.032C117.972 139.032 116.082 138.999 114.194 139.047C113.457 139.064 113.185 138.911 113.185 138.093C113.227 134.234 113.212 130.376 113.185 126.517C113.185 125.934 113.227 125.591 113.98 125.606C118.3 125.699 122.625 125.465 126.941 125.762C130.489 126.015 132.965 128.087 133.358 131.062C133.934 135.385 131.466 138.411 127.022 138.885C124.642 139.143 122.249 138.953 120.225 139.032Z" fill="#F4BE20"/>
<path d="M113.293 161.797C113.263 157.522 113.233 153.248 113.205 148.975C113.192 146.451 113.205 146.408 115.728 146.451C120.089 146.524 124.46 146.199 128.813 146.673C129.9 146.75 130.957 147.059 131.912 147.582C132.135 148.16 131.66 148.427 131.357 148.73C127.18 152.936 122.992 157.125 118.795 161.298C118.464 161.628 118.121 161.936 117.603 161.918C116.17 161.845 114.724 162.05 113.293 161.797Z" fill="#F4BE20"/>
<path d="M118 161.737C122.317 157.401 126.633 153.063 130.948 148.722C131.299 148.369 131.723 148.071 131.915 147.579C133.835 148.422 135.052 149.83 135.423 151.922C135.546 152.52 135.105 152.841 134.764 153.184C132.104 155.862 129.437 158.532 126.762 161.194C126.333 161.621 125.876 161.928 125.225 161.923C122.954 161.903 120.682 161.923 118.431 161.923C118.272 161.913 118.098 161.906 118 161.737Z" fill="#F4BE20"/>
<path d="M118 161.737L125.046 161.792C125.212 161.813 125.382 161.797 125.542 161.746C125.702 161.696 125.85 161.612 125.974 161.499C129.114 158.294 132.417 155.256 135.423 151.91C136.74 157.035 134.863 161.169 128.978 161.737C123.829 162.241 118.648 161.883 113.485 161.923C113.422 161.923 113.359 161.83 113.293 161.782L118 161.737Z" fill="#F4BE20"/>
<path d="M158.597 148.674C158.615 148.096 159.102 147.829 159.435 147.486C161.787 145.119 164.152 142.767 166.501 140.402C166.726 140.177 167.145 139.97 167.026 139.625C166.87 139.17 166.37 139.44 166.032 139.347C168.175 138.933 170.392 139.153 172.412 139.98C174.219 140.717 175.084 142.461 174.968 144.455C174.92 145.28 174.327 145.257 173.865 145.379C170.272 146.317 166.612 146.951 162.973 147.69C161.512 147.985 160.056 148.341 158.597 148.674Z" fill="#F4BE20"/>
<path d="M172.202 152.965L174.928 151.955C174.928 153.896 175.024 155.741 174.905 157.552C174.723 160.374 172.972 162.095 170.489 163.092C167.768 164.195 164.985 164.689 162.138 163.486C162.05 163.097 162.304 162.852 162.537 162.62C165.75 159.39 168.972 156.171 172.202 152.965Z" fill="#F4BE20"/>
<path d="M172.202 152.965C172.003 153.59 171.551 154.024 171.104 154.479C168.111 157.485 165.122 160.493 162.138 163.503C160.275 162.658 159.281 161.232 159.362 159.17C159.443 157.108 160.654 155.788 162.567 155.132C165.716 154.07 168.972 153.583 172.202 152.965Z" fill="#F4BE20"/>
<path d="M79.7189 13.1229C79.7189 12.5399 79.7189 11.957 79.7189 11.374C79.8775 11.6381 79.9613 11.9404 79.9613 12.2484C79.9613 12.5565 79.8775 12.8588 79.7189 13.1229Z" fill="#F4BE20"/>
<path d="M169.209 110.371L167.672 110.391L167.715 110.03L169.209 110.371Z" fill="#105B31"/>
<path d="M179.031 108.635C178.935 108.829 178.708 109.066 178.587 108.887C178.494 108.722 178.457 108.53 178.482 108.342C178.508 108.154 178.594 107.979 178.728 107.845C178.862 108.092 178.622 108.488 179.031 108.635Z" fill="#76A089"/>
<path d="M181.868 111.592C181.888 112.746 181.307 113.442 180.313 113.412C179.22 113.379 178.799 112.71 178.771 111.698C178.748 110.547 179.326 109.881 180.336 109.884C181.295 109.889 181.835 110.492 181.868 111.592Z" fill="#F4BE20"/>
<path d="M168.177 111.888C168.21 111.166 168.98 110.944 169.214 110.361C169.537 110.333 169.719 110.108 169.896 109.881C170.534 109.081 171.369 109.167 172.167 109.525C172.964 109.884 173.222 111.241 172.826 112.334C172.505 113.22 171.884 113.546 170.978 113.465C170.572 113.427 170.145 113.26 170.055 112.925C169.767 111.88 169.025 111.829 168.177 111.888Z" fill="#F4BE20"/>
</g>
<defs>
<clipPath id="clip0">
<rect width="322.408" height="192" fill="white"/>
</clipPath>
</defs>
</svg>
