<svg id="Layer_1" data-name="Layer 1" xmlns="http://www.w3.org/2000/svg" viewBox="0 0 1277.56 760.81"><defs><style>.cls-1{fill:#162816;}.cls-2{fill:#174f3d;}.cls-3{fill:#096534;}.cls-4{fill:#0d5f31;}.cls-5{fill:#134c3a;}.cls-6{fill:#0a6233;}.cls-7{fill:#105435;}.cls-8{fill:#144c3a;}.cls-9{fill:#105733;}.cls-10{fill:#0b6836;}.cls-11{fill:#0c5d30;}.cls-12{fill:#115137;}.cls-13{fill:#124f38;}.cls-14{fill:#144e39;}.cls-15{fill:#0d5c30;}.cls-16{fill:#15493c;}.cls-17{fill:#16483d;}.cls-18{fill:#0e5931;}.cls-19{fill:#0e5a30;}.cls-20{fill:#0a6434;}.cls-21{fill:#0f6b37;}.cls-22{fill:#0e5a31;}.cls-23{fill:#0f5a31;}.cls-24{fill:#fff;}.cls-25{fill:#fefefe;}.cls-26{fill:#115933;}.cls-27{fill:#0d6032;}.cls-28{fill:#0a6333;}.cls-29{fill:#0e5932;}.cls-30{fill:#fdfefd;}.cls-31{fill:#105336;}.cls-32{fill:#125534;}.cls-33{fill:#0e5c30;}.cls-34{fill:#115435;}.cls-35{fill:#105b31;}.cls-36{fill:#76a089;}.cls-37{fill:#115a33;}</style></defs><path class="cls-1" d="M1119.34,80q188.81,0,377.61-.11c4.74,0,6,1,6,5.88q-.24,182.94-.24,365.87c0,4.76,1,5.92,5.87,5.91q183.3-.22,366.61-.23c4.56,0,5.61,1.15,5.61,5.64q-.19,185.93,0,371.86c0,4.91-1.27,5.88-6,5.87q-185.57-.21-371.12-.12c-7.35,0-6.48.87-6.48-6.25q0-182.68.11-365.38c0-4.77-1-5.94-5.89-5.93q-183.32.22-366.62.13c-1.82,0-3.64.17-5.46.27Z" transform="translate(-1119.34 -79.87)"/><path class="cls-2" d="M2269.13,370.79c-7.84-3.46-14.54-7.85-16.79-16.64-1.94-7.55.39-14.07,4.9-20a53.9,53.9,0,0,1,13.33-11.91c1.58-1.06,2.47-1.64.67-3.65-28.3-31.72-15.39-76.21,25.57-88.68,17-5.17,34.07-4.2,50.71.26,13.06,3.5,23.76.31,34.26-6.75,5.13-3.45,9-1.78,10.53,4.42,1.08,4.32-.34,8.23-2.56,11.84a32.28,32.28,0,0,1-12.44,11.24c-2,1.11-2.35,2.09-1.33,4.27,13.52,28.71-.38,67.68-44.56,75.31a91.1,91.1,0,0,1-42.46-2.23c-2.61-.8-3.93-.2-5.43,1.7-6.9,8.71-4.06,17.65,6.87,20.54,12.64,3.34,25.42,1.89,38.18.62,13.07-1.3,26.13-2.78,39.28-.65,28.12,4.55,33.72,27.27,25.7,47.05-5.6,13.83-16.34,23-29.62,28.86-27.87,12.34-56.48,14-85.43,4-9.54-3.3-18-8.62-24.06-17-8.87-12.29-7.47-24.55,4-34.46C2261.69,376.05,2265.31,373.66,2269.13,370.79Z" transform="translate(-1119.34 -79.87)"/><path class="cls-2" d="M2004.33,736.92c-5.2,3.79-10,7.53-15.06,11a57.78,57.78,0,0,1-73.23-6.55c-12.42-12.21-18.31-27.58-20-44.53-1.78-18,.28-35.51,8.11-52,16.64-35.12,55.3-49.47,91.75-34.1,8.44,3.56,8.58,3.52,8.55-5.6,0-6.48.3-13-.74-19.42-.89-5.54-3.77-9-9.18-10.52a68.25,68.25,0,0,1-7.6-2.36c-5.58-2.28-6.67-8.13-2.37-12.44a13.14,13.14,0,0,1,3.57-2.7c13-6.11,26.41-10.87,40.94-11.41,7.7-.28,10.57,2,10.71,9.72.21,11.63-.48,23.27-.71,34.91-.83,41.25-1.46,82.49.38,123.73,0,.83.06,1.67.14,2.49,1.2,11.43,1.41,11.64,12.6,14.51,3.66.94,7.83,1.36,8.35,6.39s-2.85,7.46-6.85,9.21c-12.23,5.35-24.87,9.3-38.23,10.53-7.12.66-9.71-1.79-10.09-8.91C2005.19,745,2006,741.14,2004.33,736.92Z" transform="translate(-1119.34 -79.87)"/><path class="cls-2" d="M1873.55,229.71c0,16.8,0,33.6,0,50.41,0,2.08-.58,4.65,1.79,5.83,2.13,1,3.78-.81,5.33-1.9A157.12,157.12,0,0,0,1909,258.16c4.14-4.81,3.74-5.9-1.79-8.78-3.69-1.93-6.94-4.14-6.45-9s3.9-7.43,8.1-8.36a114.27,114.27,0,0,1,46.52-.64,12.81,12.81,0,0,1,6.61,3.29,8.14,8.14,0,0,1-1.51,13.13,15.32,15.32,0,0,1-5.09,1.9c-18.85,2.87-30,16.64-42,29.3-2.46,2.59-1.75,5-.06,7.63,4.93,7.52,10.52,14.54,16,21.63,8.59,11,17.45,21.81,26.77,32.24,7.1,7.95,14.9,14.6,25.67,17.09,4.72,1.09,9,3.19,8.7,9.19-.19,4.61-3.42,8.08-9.5,9.46a87.44,87.44,0,0,1-34.22.89c-6.42-1.09-10.55-6.09-14.4-10.92-11.29-14.18-22.4-28.51-33.7-42.68-6.11-7.67-12-15.55-19-22.48-1.24-1.23-2.49-3.18-4.58-2.17-1.71.83-1.52,2.84-1.51,4.49.13,14.13-.54,28.27,1,42.38.71,6.5,2.87,11.55,10,13.08a16.22,16.22,0,0,1,3.17,1.42,7.64,7.64,0,0,1,4.9,7.41c0,3.87-2.28,6.16-5.58,7.49-5.64,2.27-11.66,2.49-17.64,2.81-12.48.66-24.94.61-37.32-1.4a20.63,20.63,0,0,1-4.76-1.38c-3.7-1.55-5.79-4.19-5.77-8.43s2.46-6.19,5.83-7.1c8.12-2.19,10.61-8.14,11.46-15.61a141.17,141.17,0,0,0,.92-17.43c-.39-36.26.46-72.54-.93-108.79,0-1-.06-2-.1-3-.6-14.65-1.33-15.58-15-19.89-3.55-1.11-7.81-1.47-8.2-6.58-.4-5.31,3-7.82,7.2-9.57,13.54-5.67,27.46-10,42.21-10.95,7.37-.47,9.79,1.54,10,9,.23,9.79-.38,19.61-.5,29.42-.1,7.81,0,15.62,0,23.44Z" transform="translate(-1119.34 -79.87)"/><path class="cls-2" d="M2227.17,312.47c.49,9.53-1,21.16,0,32.81.57,6.8,3.23,11.63,10.11,13.77,3.91,1.21,7.43,3,7.16,8.22-.27,5.35-3.81,7.4-8.22,8.61a31.16,31.16,0,0,1-6.84,1.3c-15.13.65-30.27,1.43-45.35-.71a24,24,0,0,1-5.28-1.37c-3.33-1.3-5.52-3.5-5.6-7.42s1.74-6.66,5.29-7.49c10.14-2.37,13-9.33,13.38-18.75.89-20.3,1.09-40.59-1.56-60.76-2.27-17.28-9.3-24.4-24-25.47-12.92-1-25.88,8.86-29.8,22.66a95,95,0,0,0-3.17,22.65c-.56,15.29-1.19,30.58,0,45.88.48,6.33,3.12,10.7,9.48,12.43a32.12,32.12,0,0,1,3.24,1.29c3.44,1.34,5.44,3.7,5.35,7.54s-2.28,6.18-5.59,7.5c-5.5,2.2-11.34,2.43-17.15,2.75-12.66.7-25.29.62-37.83-1.41a24.34,24.34,0,0,1-5.63-1.87c-3.41-1.5-4.87-4.25-4.9-7.95s2.19-6.05,5.39-6.91c8.91-2.39,12.11-8.63,12.19-17.1.21-25.43.72-50.86-1.2-76.26-.43-5.7-3.34-9.12-8.88-10.49a37.67,37.67,0,0,1-6.11-2.1c-6-2.65-6.76-8.28-1.75-12.61a26.91,26.91,0,0,1,7.77-4.4,149.9,149.9,0,0,1,34.95-9.62c7.42-1,10.52,1.65,10.73,9.24.06,2.5-.07,5,.05,7.49.06,1.23-.76,2.93.68,3.61,1.7.81,2.62-.95,3.68-1.9,2.36-2.1,4.66-4.27,7-6.44,14.18-13.35,30.85-15.89,48.62-9.78,18.61,6.39,29.08,20.16,32,39.62C2227.46,282.75,2227.1,296.56,2227.17,312.47Z" transform="translate(-1119.34 -79.87)"/><path class="cls-2" d="M1794.7,306c0,11.67,0,22.15,0,32.63a40.25,40.25,0,0,0,.92,8.4c.79,3.77,2.68,6.32,6.64,7.13a53.37,53.37,0,0,1,5.76,1.57c6.9,2.23,8.53,7.13,4.06,13-5.73,7.46-14.07,10-22.87,11.88-10,2.09-17.35-1.5-23.67-9s-4.76-7.41-13.46-1.74c-15.86,10.34-32.89,14.12-51.33,9.34-19.08-4.94-31.58-20.23-32.78-39.3-1.41-22.28,8.78-39.59,28.43-47.93,16.55-7,33.92-7.32,51.47-5.78,2.15.19,4.29.48,6.44.74,6.48.79,6.54.8,6.46-6-.06-5.14.37-10.3-.53-15.43-3.15-18-17.73-25.34-34.2-17.23-6.1,3-10.8,7.67-15,12.92-2.58,3.26-5.11,6.57-8.58,9-6.07,4.24-14.33,4.61-19.15.83s-6.32-11.17-3.67-18.28c2.76-7.42,8.37-12.21,15-16.07,9.51-5.55,20-8.14,30.77-9.19,14.3-1.4,28.54-1.47,42.4,3.34,16,5.57,24.39,16.81,26,33.61C1795.1,278.56,1794.41,292.86,1794.7,306Z" transform="translate(-1119.34 -79.87)"/><path class="cls-2" d="M1603.1,301.63c-13.48,0-27-.06-40.44,0-6.73,0-7.84,1.26-7.84,7.88,0,34.94,37,56.09,68.84,39.38a86.25,86.25,0,0,0,13.13-9,42.33,42.33,0,0,1,4-3c3.94-2.4,8.06-3.67,11.87,0s2.53,7.86,0,11.35c-12.06,16.49-28.19,27.39-48.24,31-42.64,7.76-79.21-17.33-86.68-60-6.92-39.54,13.43-81.85,58.5-91,21.56-4.36,42.69-2.66,60.37,12.34,15.91,13.5,20.32,31.77,18.74,51.75-.55,6.86-3.62,9-11.28,9.1-13.65.15-27.3,0-41,0Z" transform="translate(-1119.34 -79.87)"/><path class="cls-2" d="M2051.15,287.68c-.94,19.26-2.54,38.52-.83,57.8.63,7.06,3.47,11.88,10.6,13.82,4.46,1.21,8,3.41,7.55,8.92s-4.62,7.1-8.88,8c-11.63,2.5-23.48,2.21-35.27,1.8-5.47-.19-11-.11-16.36-1.53a34.37,34.37,0,0,1-5.62-1.89c-3.35-1.52-4.88-4.21-4.9-7.95s2.24-6,5.41-6.89c8.64-2.31,12.05-8.32,12.18-16.58.4-25.58.8-51.16-1.18-76.71-.44-5.66-3.17-9.23-8.8-10.53a41.41,41.41,0,0,1-5.2-1.67c-2.91-1.08-5.58-2.55-5.94-6-.34-3.28,1.38-5.66,3.89-7.61a35,35,0,0,1,8.8-4.59,163.52,163.52,0,0,1,32-9c9.87-1.71,12.84.77,12.88,10.8,0,8.8-.28,17.61-.35,26.42C2051.1,272.06,2051.15,279.87,2051.15,287.68Z" transform="translate(-1119.34 -79.87)"/><path class="cls-2" d="M2028.53,210.69c-.83,0-1.66.05-2.49,0-9.88-.67-18.13-7.08-19.4-15.06-1.44-9.07,4.29-18,14-21.62a26.47,26.47,0,0,1,20.87.63c6.31,2.92,10.38,7.63,11.08,14.78.75,7.64-2.8,13.16-8.91,17.18A25.9,25.9,0,0,1,2028.53,210.69Z" transform="translate(-1119.34 -79.87)"/><path class="cls-3" d="M1497,279.68v57.91a22.32,22.32,0,0,1-4.27,5.46q-55.08,55-110.12,110.05a21.51,21.51,0,0,1-5.47,4.26h-58c-.43-3.06,2.17-4.3,3.82-5.95q32.54-32.67,65.18-65.25c1.46-1.46,3.4-2.63,4-5.17-4.9-.64-9.69.08-14.43-.42-1.13-.12-2.53-.25-2.69-1.71-.1-.92,1-1.18,1.74-1.48,8.79-.91,17.59-.22,26.37-.43,5.74-.14,6.27-.54,6.29-6.29.06-20.89,0-41.79,0-62.69,0-2.63-.33-5.33,1-7.78.92-1,1.69-.82,2.21.4.79,1.9.59,3.92.59,5.9,0,15.93,0,31.86,0,47.79,0,1.62-.37,3.3.49,5.15,2.19-.62,3.4-2.45,4.84-3.89q36-35.87,71.91-71.76C1492.41,282,1493.77,279.32,1497,279.68Z" transform="translate(-1119.34 -79.87)"/><path class="cls-4" d="M1261.22,457.36h-57.94c-.48-2.87,2-4,3.48-5.55q33-33.12,66.08-66.13c1.26-1.26,2.84-2.29,3.49-4.11-.62-1.59-3-.73-3.43-2.48a1.43,1.43,0,0,1,.8-1.22c8.54-1.11,17.17-1.17,25.67-2.72,10.4-1.9,20.28-5,29-11.22a44.74,44.74,0,0,0,17.68-25.71,68.79,68.79,0,0,0,2.76-20.63c-.09-2.47-.29-5,.55-7.4,7.9-6.58,14.9-14.11,22.34-21.17,1.36-1.29,3.23-3.09,4.53.29.78,17.44.59,34.89.13,52.32a6.3,6.3,0,0,1-2.08,3.29c-36.56,35.79-72.45,72.26-108.73,108.33C1264.14,454.66,1262.73,456.06,1261.22,457.36Z" transform="translate(-1119.34 -79.87)"/><path class="cls-5" d="M1225.21,85.05h77.93c-.8,3.06-3.38,2.1-5.29,2.12-9.82.13-19.64.1-29.46,0A9,9,0,0,0,1261.3,90c-24,24.26-48.2,48.28-72.31,72.42-2.11,2.12-4.23,4.23-6.14,6.54a15.93,15.93,0,0,0-3.53,3.52c-17.24,16.35-33.57,33.6-50.64,50.11-1.9,1.84-2,4-2,6.4,0,10.13.07,20.25-.06,30.38,0,1.91.87,4.47-2.15,5.28V202.75c1-11.08.29-22.19.37-33.29a10,10,0,0,1,3.26-7.81q36.7-36.27,73-72.95a9.85,9.85,0,0,1,7.81-3.29C1214.3,85.44,1219.78,86,1225.21,85.05Z" transform="translate(-1119.34 -79.87)"/><path class="cls-6" d="M1497,279.68c-1.36,1.2-2.8,2.33-4.08,3.61q-37.44,37.36-74.85,74.75c-1.5,1.49-2.72,3.43-6.1,3.89V299.4c-1.64-1.91-1.13-4.08-.63-6.16,3.58-14.77,12.67-24.45,27.15-29a50,50,0,0,1,12.68-2.48c4.73-.2,5.72-2.48,5.6-6.67-.16-5.12-.51-10.28.32-15.38,1.41-3.2,4.62-4.64,6.92-7,9.15-9.36,18.45-18.58,27.77-27.78,1.44-1.41,2.55-3.65,5.23-3.1Z" transform="translate(-1119.34 -79.87)"/><path class="cls-7" d="M1639.88,834.79h-58.94c-.74-3.66,2.21-5.3,4.21-7.3q35.3-35.43,70.73-70.74a46.11,46.11,0,0,0,5.61-6.32c2.53-2.58,6.08-3.25,9.13-4.88,11-5.85,18.79-14.43,23-26.22.59-1.67.84-3.6,2.66-4.59,2.23.35,3.65-1,5.07-2.38,2.87-2.92,5.69-5.89,8.72-8.63,1.17-1.05,2.38-3.06,4.44-1.14a6.73,6.73,0,0,1,.41,3.91c-2.3,14.22,2,26.51,11,37.38a5.8,5.8,0,0,1,1.19,2.16c.19,1.74-1,2.75-2.07,3.78C1696.66,778.14,1668.45,806.65,1639.88,834.79Z" transform="translate(-1119.34 -79.87)"/><path class="cls-8" d="M1875.59,657.12V755a1.2,1.2,0,0,0-.39.89c1.68,8.57-2.91,14-8.69,19.61-18.55,18-36.68,36.44-55,54.74a22.62,22.62,0,0,1-5.82,4.58h-59c-1.39-3.39,1.58-4.74,3.28-6.45,21.18-21.29,42.71-42.24,63.52-63.88,6.28-6.52,12.48-10.06,21.58-8.89,5.73.73,11.6-.2,17.4.37.66.06.85,0,.2-.09-.22,0-.41-.49-.66-.76a37.43,37.43,0,0,1-4.79-19.56c.06-5.1-.8-10.26.72-15.3,7.22-7.29,14.41-14.62,21.85-21.7a10.3,10.3,0,0,0,3.47-8.3q-.19-13.92,0-27.83C1873.39,660.47,1872.62,657.93,1875.59,657.12Z" transform="translate(-1119.34 -79.87)"/><path class="cls-9" d="M1456,85.07q18.64,0,37.31-.06c1.28,0,2.7-.33,3.66,1a5.91,5.91,0,0,1-1.3.87c-7.6.92-15.23.42-22.84.34a12.63,12.63,0,0,0-10.35,4.44c-9.37,10.06-19.41,19.48-29,29.35-2.22.81-3.75-.9-5.55-1.57-6.34-2.38-14-.73-17.21,4-1.07,1.56-2.86,3.52-.74,5.26s4,.61,5.37-1.54a6.59,6.59,0,0,1,3.76-3.11,8.09,8.09,0,0,1,4.47.14,3.29,3.29,0,0,1,1.67,1.45c-.34,4.18-4,6.26-6,9.34a13.09,13.09,0,0,1-1,1c-4.36,3.21-8.49,6.63-10.71,11.78-.47,2.8,1.68,5.24,1.09,8.05a11.53,11.53,0,0,1-3.09,3.84q-29.17,29.19-58.41,58.31c-1.68,1.67-3.13,4.72-6.5,2.67-.93-1.64-1-3.51-1.19-5.29-1.32-11.6-5.88-21.59-14.49-29.63a5.09,5.09,0,0,1-1.52-2.51c-.34-3.57,2.48-5.27,4.52-7.31,27.11-27.17,54.54-54,81.23-81.6,6.5-6.71,12.8-9.65,22-8.9A130.33,130.33,0,0,0,1456,85.07Z" transform="translate(-1119.34 -79.87)"/><path class="cls-10" d="M1503,598.18V522.29c17.83-18.25,36-36.14,54.1-54.16,2-2,3.14-5.32,6.81-5.23q28,0,55.87,0c2-.15,3,.48,1.78,2.52a22.35,22.35,0,0,1-4,4.44q-35,35-70.14,70c-2.55,2.53-4.15,6.1-7.83,7.46-.66.09.18.06-.49.12-9.7.9-9.64.9-9.72,11,0,5.47.41,11-.34,16.41-.75,2.83-3.44,3.89-5.27,5.72-5.13,5.13-10.22,10.32-15.45,15.36C1506.94,597.35,1505.66,599.57,1503,598.18Z" transform="translate(-1119.34 -79.87)"/><path class="cls-11" d="M1497,201.8q-16.5,16.23-33,32.47c-1.78,1.76-3.53,3.51-5.91,4.45-1.73-1.53-1.32-3.63-1.41-5.57-.27-5.67-.24-5.57-6.12-5.19-14.74.93-26.83,6.68-35.44,19-.92,1.32-1.94,3.24-3.79,2.63s-1.49-2.74-1.58-4.35c-.26-4.63.32-9.27-.37-13.87-2.64-2.66-6-.89-8.92-1.39s-7.19,1.53-8.51-2c-1.14-3.06,2.7-5,4.73-7q26.52-26.68,53.2-53.22a56.13,56.13,0,0,0,5.65-6.29,3.83,3.83,0,0,1,2-1.33c8.16-1.24,12.18-6.51,13.85-14.1,6.59-6.19,12.84-12.73,19.32-19,1.7-1.64,3.22-3.93,6.21-3.09Q1497,162.86,1497,201.8Z" transform="translate(-1119.34 -79.87)"/><path class="cls-10" d="M1377.13,457.36c.85-1,1.63-2.09,2.56-3q57.12-57.12,114.28-114.2c.93-.93,2-1.71,3-2.55v59.9q-29.74,30.15-59.93,59.86Z" transform="translate(-1119.34 -79.87)"/><path class="cls-6" d="M1261.22,457.36c0-2.12,1.7-3.14,3-4.4q53.19-53.19,106.41-106.34c1.26-1.26,2.27-3,4.36-3.05,1.48,1.15,1.65,2.84,1.68,4.49.17,8.61.14,17.22,0,25.83a6.53,6.53,0,0,1-1.53,4.61c4.05,2.2,8.41.58,12.61,1,2.12.21,4.27,0,6.45,0,.35,3.11-2,4.31-3.51,5.86q-33.9,34-67.88,67.9c-1.28,1.28-2.41,2.71-3.61,4.07Z" transform="translate(-1119.34 -79.87)"/><path class="cls-7" d="M1456,85.07c-1.54,1.52-3.47.86-5.23.87-9.48.07-19,0-28.43,0-1.79,0-3.48-.14-5,1.47-29.13,30.79-59.79,60.06-89.52,90.26-1.47,1.49-3.55,2.62-3.66,5.11-1.66.56-2.93-.4-4.13-1.22-11.21-7.71-24-10.38-37.21-11.41-1.48-.11-3,0-4.34-.9-1.31-3.17,1.5-4.42,3.07-6,12.51-12.66,25.15-25.2,37.73-37.8s25.06-24.82,37.32-37.49a8.23,8.23,0,0,1,6.62-2.54c13.65.08,27.29.06,40.94,0,1.63,0,3.32.44,4.89-.4Z" transform="translate(-1119.34 -79.87)"/><path class="cls-12" d="M1639.88,834.79c0-1.7,1.19-2.66,2.24-3.71q41.4-41.39,82.82-82.74a13.73,13.73,0,0,1,2-1.44c1.65-.4,2.9.51,4.1,1.37,10.23,7.3,21.68,10.51,34.17,10.33a12.42,12.42,0,0,1,4.91.57c1.79,1.08,1.22,2.45.41,3.82a10.35,10.35,0,0,1-1.59,1.9c-23.37,23.3-46.55,46.79-70.11,69.9Z" transform="translate(-1119.34 -79.87)"/><path class="cls-13" d="M1182.29,168.69c0-1.7,1.29-2.62,2.33-3.67q38.72-38.84,77.38-77.7c1.62-1.63,3.28-1.32,5-1.32,10.81,0,21.61,0,32.42,0,1.29,0,2.69.29,3.71-.91h40c-.64,2.82-3,2.06-4.78,2.1-6.49.15-13,.13-19.46,0a8.74,8.74,0,0,0-6.95,3c-25.34,25.91-51.17,51.35-76.78,77a9,9,0,0,1-4.6,2.86c-14.58.76-29.16.26-43.74.28C1185.15,170.34,1183.45,170.17,1182.29,168.69Z" transform="translate(-1119.34 -79.87)"/><path class="cls-14" d="M1698.83,834.79c0-2.32,1.94-3.39,3.31-4.76q32.63-32.67,65.29-65.31c1.37-1.37,3.27-2.45,3.34-4.76,1-1.81,2.88-2.07,4.71-2.35,11.17-1.71,21.61-5.32,30.82-12.06a21.89,21.89,0,0,1,2.09-1.35c3.94-2.25,4.72-1.93,5.81,2.33.21.8.39,1.62.52,2.44.62,3.92,2.79,5.65,6.85,5.59,8.48-.12,17,0,25.45,0,2.34,0,4.68-.06,6.71,1.4.29.61,0,.94-.57,1-1,.07-2,0-3,0-9.12.08-19.24-2.29-27.06.93-7.62,3.14-12.86,12-19.18,18.34Q1777,803.13,1750.09,830c-1.37,1.37-3.26,2.44-3.31,4.75Z" transform="translate(-1119.34 -79.87)"/><path class="cls-12" d="M1232.24,168.69q17.73-17.88,35.45-35.76c13.73-13.78,27.82-27.23,41.1-41.42,4.26-4.55,8.41-5.71,14.13-5.68,6.71,0,13.53,1.31,20.18-.77H1409c-1.52,1.53-3.46.87-5.21.88-12.47.06-24.94.23-37.4-.08-4.35-.1-7.17,1.26-10.23,4.36-24.64,24.94-49.52,49.65-74.31,74.45-1.28,1.29-2.46,2.68-3.69,4-1.63,1.87-3.89,1.7-6,1.72q-17,.11-33.93,0C1236.13,170.4,1233.87,170.58,1232.24,168.69Z" transform="translate(-1119.34 -79.87)"/><path class="cls-9" d="M1661.86,751c-.11,2.49-2.19,3.62-3.66,5.1q-36.39,36.44-72.85,72.81c-1.77,1.77-3.51,3.53-4.41,5.92h-46c-1.39-3.39,1.58-4.74,3.28-6.44q34.26-34.41,68.65-68.68a8.39,8.39,0,0,0,2-2.17c.63-.23-.4-.83,0-.32.17.19.08.37-.27.41-9.73,1.33-19.52.13-29.28.73-9.84.29-19.67.16-29.5.11-5.61,0-11.23.25-16.83,0-2-.1-4.52.45-5.15-2.56,2.42-2,5.35-1.47,8.11-1.47q45-.07,90.1,0a136.51,136.51,0,0,0,30.08-3.57C1658.08,750.39,1660,749.43,1661.86,751Z" transform="translate(-1119.34 -79.87)"/><path class="cls-15" d="M1273.19,379.28c1.78.74,4.66-.87,5.36,1.25.63,1.92-2,3.12-3.39,4.47q-34.1,34.19-68.27,68.29c-1.28,1.28-2.41,2.71-3.61,4.07h-48c-.56-2.47,1.45-3.56,2.77-4.88q35.34-35.42,70.76-70.76c1.53-1.52,3-3.1,5.35-3.45,11.43-.36,22.85-.1,34.27-.14C1270.13,378.13,1271.8,378.14,1273.19,379.28Z" transform="translate(-1119.34 -79.87)"/><path class="cls-16" d="M1225.21,85.05c-5.3,2-10.8.57-16.2.84a8.06,8.06,0,0,0-6,2.61q-37.42,37.74-75.19,75.14a7.44,7.44,0,0,0-2.56,6c.1,9.31.07,18.62,0,27.93,0,1.76.65,3.7-.9,5.21,0-37.76,0-75.52-.12-113.29,0-3.48,1-4.55,4.54-4.53C1161,85.06,1193.08,85,1225.21,85.05Z" transform="translate(-1119.34 -79.87)"/><path class="cls-13" d="M1124.42,264.66c1.54-1.52.88-3.47.89-5.22.06-10.15.18-20.3,0-30.44-.08-3.61,1.06-6,3.68-8.52,15.36-15,30.45-30.27,45.66-45.42,1.37-1.37,2.47-3.24,4.8-3.23a5,5,0,0,1,1.34,3.65c0,15.24.61,30.5-.28,45.73-.72,2.61-3.11,3.79-4.84,5.52-15.54,15.47-30.91,31.1-46.61,46.42a7.9,7.9,0,0,0-2.41,6.23c.05,6.48.1,12.95,0,19.43,0,1.77.66,4.13-2.14,4.78Z" transform="translate(-1119.34 -79.87)"/><path class="cls-9" d="M1125.34,457.34c-1.45-1.12-1-2.72-1-4.14,0-9.94,0-19.87,0-29.8,1-10.9.19-21.82.41-32.73.07-3.14,0-6.29,0-9.43v-1.63a4.33,4.33,0,0,1,1.52-3c16.37-14.83,31.34-31.07,47.17-46.44a13.43,13.43,0,0,1,3-2.53c1.87-1,3.18-.53,3.82,1.56.73,14.29.64,28.57.07,42.85-.54,2.41-2.34,3.94-4,5.57-15.78,15.64-31.25,31.6-47.3,47a8.61,8.61,0,0,0-2.61,6.65c-.17,8.27.52,16.56-.37,24.83A5.94,5.94,0,0,1,1125.34,457.34Z" transform="translate(-1119.34 -79.87)"/><path class="cls-12" d="M1125.34,378.52v1c-.29.44-.59.44-.89,0q0-38,0-75.93c2-5.47,1.23-11.21.73-16.68-.77-8.48,2-14.35,8.31-20.18,14.16-13.1,27.46-27.13,41.14-40.75,1.37-1.37,2.47-3.25,4.81-3.23a5,5,0,0,1,1.33,3.63c0,13.34.59,26.69-.29,40-.61,2.38-2.41,3.92-4,5.56-15.41,15.4-30.73,30.88-46.28,46.12a10.67,10.67,0,0,0-3.49,8.34c.11,15,0,29.92,0,44.88C1126.67,373.78,1126.9,376.31,1125.34,378.52Z" transform="translate(-1119.34 -79.87)"/><path class="cls-17" d="M1805.74,834.79c3.77-3.94,7.49-7.94,11.34-11.8,17.44-17.48,34.84-35,52.46-52.3,3.54-3.48,6-6.88,5.17-12-.2-1.25-.33-2.69.88-3.7,0,25,0,49.92.15,74.88,0,4-1.12,5.09-5.07,5C1849,834.72,1827.38,834.8,1805.74,834.79Z" transform="translate(-1119.34 -79.87)"/><path class="cls-18" d="M1580.84,757.12h29.35c-.55,2.29-2.24,3.22-3.48,4.46q-34,34.06-68.07,68.1c-1.48,1.48-3.57,2.61-3.67,5.11h-31c-.49-2.43,1.45-3.55,2.79-4.88q34.61-34.68,69.27-69.29A14.59,14.59,0,0,1,1580.84,757.12Z" transform="translate(-1119.34 -79.87)"/><path class="cls-19" d="M1125.34,457.34v-.94a22.87,22.87,0,0,1,3.91-5.12q34.63-34.54,69.22-69.13c1.64-1.64,3.19-3.44,5.69-3.85,7.72-.37,15.43-.14,23.14-.15,1.77,0,3.67-.15,5,1.55q-28.23,28.35-56.44,56.73c-6.88,6.93-13.66,13.95-20.49,20.94Z" transform="translate(-1119.34 -79.87)"/><path class="cls-4" d="M1503,756.93V677.05c6.62-7.23,13.75-14,20.76-20.8,1.7-1.65,3.92-3.2,5.36.54.8,4.8.44,9.63.4,14.44-.15,20.27.47,40.55-.3,60.81a5.47,5.47,0,0,1-1.72,3c-6.94,6.21-13.23,13.1-20,19.54C1506.31,755.73,1505.26,757.53,1503,756.93Z" transform="translate(-1119.34 -79.87)"/><path class="cls-20" d="M1528,655.1c-2.48.08-3.51,2.24-5.08,3.61-6.78,5.94-11.94,13.63-19.86,18.34V598.18c2.48-.09,3.52-2.24,5.08-3.61,6.78-5.94,12-13.63,19.87-18.35,1.86,1.86,1.6,4.28,1.61,6.57q.08,32.87,0,65.74C1529.56,650.82,1529.82,653.24,1528,655.1Z" transform="translate(-1119.34 -79.87)"/><path class="cls-19" d="M1580.84,757.12c-5.23,5.35-10.4,10.76-15.68,16q-28.74,28.8-57.54,57.54c-1.28,1.28-2.41,2.72-3.62,4.08-1.5-1.07-1-2.69-1-4.11,0-8.94,0-17.88,0-26.83a22.47,22.47,0,0,1,3.57-4.75q19.29-19.2,38.5-38.46a14.38,14.38,0,0,1,4.78-3.51Z" transform="translate(-1119.34 -79.87)"/><path class="cls-21" d="M1437.06,457.35c0-1.91,1.46-2.9,2.61-4.05q26.61-26.62,53.25-53.22c1.16-1.15,2.15-2.61,4.07-2.59,0,18.59,0,37.18.14,55.76,0,3.27-1,4.28-4.27,4.25C1474.26,457.35,1455.66,457.38,1437.06,457.35Z" transform="translate(-1119.34 -79.87)"/><path class="cls-22" d="M1621.88,463.4h-59.94c-1.92,1.67-4.29,1.58-6.6,1.58q-22.87,0-45.74,0c-2.31,0-4.68.11-6.6-1.6,1.12-1.46,2.73-1,4.16-1q173.79,0,347.58,0c.34,0,.67,0,1,.05,6.13,1,12.32,0,18.46.54,1.66,1.95-.18,3.08-1.2,4.11q-12.88,13.14-26,26a5.87,5.87,0,0,1-3.9,2,5.63,5.63,0,0,1-1.47-.17c-12.84-3.48-20.22,1.78-21.47,15.29-.31,3.27.34,6.6-.7,9.82-1.63,2-2.52,5.15-6.19,3.87-.84-1.33-.78-2.86-1-4.34-1.16-9-6.26-12.86-15.12-11.64-1.9.26-4.4,2-5.26-1.51-.76-3.14,1.32-6.71,4.32-7.3a35.08,35.08,0,0,1,6.48-.25c6.61-.05,6.66-.11,6.38-6.76.33-3.26,2.66-5.27,4.75-7.39,6.17-6.25,12.47-12.38,18.43-19.41-19-.61-37.78-.66-56.62-.57-19.6.3-39.19.18-58.78.08-12.68.09-25.37.18-38,0-16.61.2-33.23.07-49.84.07C1626.53,465,1623.92,465.36,1621.88,463.4Z" transform="translate(-1119.34 -79.87)"/><path class="cls-21" d="M1503,463.38l58.94,0c0,1.93-1.44,2.91-2.59,4.07q-26.13,26.13-52.27,52.23c-1.15,1.16-2.15,2.62-4.07,2.59Q1503,492.85,1503,463.38Z" transform="translate(-1119.34 -79.87)"/><path class="cls-15" d="M1549.86,757.13c-15.3,15.89-30.81,31.57-46.85,46.72V756.93c6.73-6.57,13.44-13.14,20.21-19.67,1.38-1.34,2.43-3.24,4.73-3.29a33.38,33.38,0,0,1,.13,21.8c2.55,2.39,5.64.91,8.46,1.1C1541,757.18,1545.42,757.06,1549.86,757.13Z" transform="translate(-1119.34 -79.87)"/><path class="cls-13" d="M1875.59,657.12c-1.54,1.52-.88,3.45-.89,5.2-.06,10.1-.09,20.2,0,30.31a6.68,6.68,0,0,1-2.45,5.49c-6.51,6.13-12.72,12.57-19.09,18.86-1.26,1.25-2.27,2.95-4.37,3a4.29,4.29,0,0,1-1.53-3.53c-.06-15.39-.72-30.79.34-46.17,6.6-7.86,14.23-14.74,21.55-21.91,3-2.92,4.45-5.81,4.24-10-.29-5.79-.17-11.61,0-17.41,0-1.79-.58-4.13,2.19-4.79Q1875.58,636.67,1875.59,657.12Z" transform="translate(-1119.34 -79.87)"/><path class="cls-12" d="M1875.58,616.19c-2,3.58-1.3,7.59-.75,11.13,2,12.63-2.24,22.22-12.45,29.72-3.56,2.61-6.37,6.24-9.56,9.38-1.15,1.14-2.11,2.62-4,2.65a4,4,0,0,1-1.45-3.55,130.49,130.49,0,0,0-3.68-35.87c.43-2.65,2.37-4.3,4.11-6,7.26-7.29,14.43-14.66,21.87-21.75a11.15,11.15,0,0,0,3.68-8.77c-.06-17.08-.16-34.15,0-51.23a6.48,6.48,0,0,1,.79-3.22,1,1,0,0,1,1.43-.37Q1875.57,577.23,1875.58,616.19Z" transform="translate(-1119.34 -79.87)"/><path class="cls-23" d="M1497,123.92c-7.89,4.69-13,12.35-19.79,18.27-1.56,1.37-2.58,3.49-5,3.69-2-1.57-2-4.1-2.89-6.18-2.56-5.83-7.56-8.23-13.74-6.64-1.92.49-4.5,2.87-5.48-1.18-.79-3.29,1.27-7.4,4.09-8,2.43-.55,4.94-.24,7.42-.31,2.13-.06,4.36.29,6.07-1.46,2-2.44.6-3.79-1.6-4.88-.81-1.53.23-2.56,1.11-3.47q12.81-13.11,25.91-25.93c.84-.83,2.05-1.07,2.93-1.83h1Q1497,104.95,1497,123.92Z" transform="translate(-1119.34 -79.87)"/><path class="cls-7" d="M1875.57,538.26h-.9c-1.84-1.87-1.57-4.29-1.57-6.57,0-12.09-.15-24.18.07-36.28-.22-8.28,0-16.57-.08-24.86a11.09,11.09,0,0,1,1.57-6.17c-3.13-2.06-6.62-.55-9.91-1-3-.41-6.16.92-9-.88,5.33,0,10.66.07,16-.14,3.09-.13,4,1.06,4,4.05C1875.58,490.36,1875.59,514.31,1875.57,538.26Z" transform="translate(-1119.34 -79.87)"/><path class="cls-7" d="M1124.44,379.52h.9c0,12.89,0,25.79,0,38.69,0,1.75.64,3.67-.88,5.19Q1124.45,401.46,1124.44,379.52Z" transform="translate(-1119.34 -79.87)"/><path class="cls-24" d="M2346.49,277.85c0,11.08-2.51,19.83-9.51,26.81-13.43,13.39-34.93,9.6-42.72-7.65a42.57,42.57,0,0,1-.61-34.35c4.77-11.93,14.78-18.11,26.88-17.21,11.81.88,21.33,9.37,24.61,22A38.68,38.68,0,0,1,2346.49,277.85Z" transform="translate(-1119.34 -79.87)"/><path class="cls-24" d="M2306.32,379.14a279.46,279.46,0,0,0,29.35-2.17,76.62,76.62,0,0,1,15.94-.45c12.57,1.07,18.31,12.15,12,23.1-3.75,6.48-9.71,10.41-16.56,12.91-17.5,6.39-35.18,7.18-52.52-.12-14.08-5.93-17.78-20.07-8.94-31.43,1.68-2.15,3.37-3.14,6.32-2.74C2296.64,378.89,2301.5,378.87,2306.32,379.14Z" transform="translate(-1119.34 -79.87)"/><path class="cls-24" d="M2003.63,675.85c0,8.48.32,17-.08,25.45-.54,11.58-4.39,21.76-15.91,26.62-12.24,5.16-24.37,4.9-35.28-3.7-8.73-6.87-13.47-16.29-16.09-26.84-4-16.15-4.23-32.3,1.36-48.12,9.58-27.09,42.32-33.2,61.62-11.69a16.41,16.41,0,0,1,4.35,11.34v26.94Z" transform="translate(-1119.34 -79.87)"/><path class="cls-24" d="M1760.77,321.5c0,7.13.31,14.28-1.86,21.25-2,6.37-6.07,10.71-12.45,12.45a41.09,41.09,0,0,1-24.08-.25c-9.89-3.25-16.12-11.33-16.66-21.37-.66-12.21,3.86-20.76,13.79-25.32,12.94-5.94,26.29-4.12,39.64-1.72,2.06.37,1.6,1.77,1.61,3C1760.81,313.51,1760.78,317.51,1760.77,321.5Z" transform="translate(-1119.34 -79.87)"/><path class="cls-24" d="M1588.94,284.6q-13.25,0-26.48,0c-4.52,0-6.57-2.15-6.37-6.85.71-16.67,12.44-30.1,28.14-32,17.69-2.11,32.59,7.83,37.06,24.73.13.48.34.94.44,1.43,2.25,10.9.78,12.71-10.31,12.73h-22.48Z" transform="translate(-1119.34 -79.87)"/><path class="cls-24" d="M1375.12,378.5Q1375,361,1375,343.57v-55.9c-1.7-1.95-1.41-4.35-1.41-6.64,0-11.78-.13-23.55.06-35.33q-.28-6.18.05-12.37c.17-3.13,1.82-4.9,5-5,4.28-.15,8.55-.58,12.81.46,4.55,1.12,9.21.21,13.8.51,2,.13,4-.52,5.83.52v19.8c2.15-.93,2.56-2.82,3.47-4.16,9.86-14.47,24.64-18.49,40.93-19.4,2-.11,2.48,1,2.47,2.77,0,3.3.12,6.61.19,9.92-.07,6.63-.32,13.27-.14,19.9.09,3.21-.8,4.05-4.08,4.25-13.5.79-25.89,4.43-34.52,15.83A34.74,34.74,0,0,0,1412,299.4c-1.38,3-.81,6.19-.82,9.29-.07,21.72-.11,43.44,0,65.16,0,3.64-.55,5.17-4.73,5C1396,378.44,1385.57,378.58,1375.12,378.5Z" transform="translate(-1119.34 -79.87)"/><path class="cls-24" d="M1179.4,267.67q.75-22.46,0-44.92.72-25.45,0-50.92c.22-1.73.59-3.32,2.89-3.14h95.91c10.91.54,21.67,1.68,31.89,6,5.06,2.14,9.54,5.15,14.06,8.13,11.53,10,16.39,23,17.08,37.94,2.08,8.24-.62,15.69-4.24,22.78-6.23,12.21-17.18,17.92-27.84,20.31,11.69.48,22,7.41,30.69,17.44,5.08,7,9,14.56,10.64,23.11.34,1.73,1,3.53-.23,5.22.32,10.73-.26,21.37-3.71,31.64-5.3,15.79-16.53,25.65-31.85,31.31-10.2,3.76-20.87,5.05-31.61,5.91-3.3.26-6.61.33-9.91.49-17.57.07-35.14.26-52.7-.06-11.6-.21-23.11,1.44-34.69,1-2.14-.08-4.34.27-6.31-.92-1.74-1.82-1.3-3.65-.06-5.5q.75-23,0-45.91c-1.53-1.56-1.69-3.55-1.7-5.56q-.11-24.12,0-48.25A10,10,0,0,1,1179.4,267.67Z" transform="translate(-1119.34 -79.87)"/><path class="cls-11" d="M1350.25,309.62a64.19,64.19,0,0,0-11.19-27.74c-1.22-2.38.51-3.75,1.87-5.12q14.17-14.31,28.49-28.46c1.49-1.47,3-3.25,5.54-2.56q0,21,0,41.93-8.7,8.54-17.4,17.05C1355.42,306.82,1353.23,308.8,1350.25,309.62Z" transform="translate(-1119.34 -79.87)"/><path class="cls-9" d="M1179.48,378.15c1.88,1,3.92.6,5.89.6q43.89.13,87.8.22l0,.31-40.94.42-30,0c-6.79,2.59-13.77,1.39-20.69,1C1180.46,380.59,1178.63,380.21,1179.48,378.15Z" transform="translate(-1119.34 -79.87)"/><path class="cls-24" d="M1528.08,755.77q-.06-10.89-.13-21.8V576.22c.08-8.39.41-16.8.13-25.18-.13-4.06,1.24-5.15,5-4.78a65,65,0,0,0,7.89-.13,11.69,11.69,0,0,1,5.73-1.46c17.29,0,34.58-.19,51.86.11,9.9-.15,19.8,0,29.7-.1,3.51,0,6.86.84,10.29,1.16,15.54,1.74,29.29,7.29,40.19,18.9,10.87,12.81,13.77,27.64,11.07,43.87-3,15.34-11.83,25.65-26.48,31.07-2.29.85-4.56,1.65-7,1.33,10.45.93,19.14,5.73,27,12.28a54.19,54.19,0,0,1,13,19.48c5,12.28,4.76,24.91,2.56,37.66-.28,1.62-.64,3.28-2.15,4.33-4.37,13.68-11.91,24.88-25,31.6-3.21,1.65-6.53,3.08-9.8,4.6-7,1.6-13.91,3.38-21.08,4.2a191.75,191.75,0,0,1-21.41,1.08c-29,.1-57.91,0-86.86,0A39.44,39.44,0,0,1,1528.08,755.77Z" transform="translate(-1119.34 -79.87)"/><path class="cls-24" d="M1844.54,629.5c5,12.8,3.84,26.27,4.26,39.57V720c-.31,12.25-1.29,24.59,4.93,35.94-11.79.12-23.58.21-35.37.39-2.29,0-3.19-1.13-3.85-3.06a29.48,29.48,0,0,1-1.9-10.29c-8.16,5.9-16.23,10.63-25.34,13.46-5.42,1.69-11,2.15-16.5,3.53-7.58-.08-15.15,0-22.58-2a58.84,58.84,0,0,1-21.25-11.08c-12.35-12.63-15.81-27.83-13-44.85-.78-3.93,1.3-7.09,3-10.28,6.68-12.76,18.16-19.37,31.15-24,13.89-4,28.22-6,42.32-9.08,5.68-1.22,11.34-2.51,17-3.91,3.21-.8,4.24-2.72,3.81-5.87-.89-6.48-4.07-11.4-10.29-13.48-7.58-2.53-15.43-3.88-23.49-2.26-2.11.44-4.3.35-6.37,1-7.31,2.24-11.93,6.73-12.81,14.68-.64,5.75-2.15,6.86-7.81,6.12-5.28-.69-10.58-.33-15.87-.42-3,0-5.93-.3-8.9-.63-4.43-.48-6.67-2.5-6.16-7.09,2.08-19.67,13.44-31.88,31.34-38.81a79,79,0,0,1,15.87-4.27,158.93,158.93,0,0,1,41.74.22c8.86,2.19,17.81,4.21,25.11,10.23C1838.52,618.32,1843.39,622.58,1844.54,629.5Z" transform="translate(-1119.34 -79.87)"/><path class="cls-9" d="M1720.6,646.13c-1.17,5.27,1.36,6.57,6.23,6.6,8.76,0,17.53.6,26.29,1.08,2.63.14,3.65-.92,3.54-3.42-.55-12.43,10.32-19.24,20.6-18.36,1.6-.31,3.58-1.23,4.6.39,1.23,1.94-.65,3.39-1.89,4.63-10.7,10.67-21.18,21.57-32.18,31.94-7.62,3.17-15,6.59-21.27,12.24s-10,12.93-12.6,20.82c-5.14,3.67-8.93,8.75-13.6,12.9-1.12,1-2.64,3.68-3.62-.19.53-5.87,2-11.6,2.19-17.55a71.2,71.2,0,0,0-4-25.13c8.1-6.5,14.67-14.6,22.43-21.45C1718.84,649.33,1718.08,646.57,1720.6,646.13Z" transform="translate(-1119.34 -79.87)"/><path class="cls-19" d="M1375,245.74a17.6,17.6,0,0,0-5.19,3.8q-13.89,14-27.84,27.86c-1.28,1.28-2.84,2.4-2.87,4.48-8.77-9.66-19.24-16.16-32.6-17.45.32-.51.52-1.2.86-1.28,22.46-5.23,33.07-19.9,33.91-42.39,2.3-.09,3.36-2,4.73-3.34q29.07-29,58.1-58c1.28-1.28,2.72-2.39,4.09-3.58,1.31-.45,2.23.36,3.13,1,5.7,4.33,11.84,3.69,17.92,1.28,5-2,5.81-6.82,6.69-11.44,1.26-3.72,3.26-6.52,7.75-6.23a10,10,0,0,0,7.43-2.11,7.94,7.94,0,0,1,9.77-.21c3.53,2.36,3.76,6.07,3.27,9.81a8.56,8.56,0,0,1-6.31,7.57c-2.84.86-5.21-.17-7.13-2.33-.78-.87-1.18-2.05-2.11-2.76a3.44,3.44,0,0,0-4.57.27c-1.28,1.12-.49,2.47.27,3.58a11.58,11.58,0,0,0,7.17,5c1.73.4,3.72.41,4.6,2.45,0,2.34-1.86,3.43-3.23,4.8-17.17,17.2-34.42,34.31-51.5,51.61-3,3.09-9,5.84-8,9.68.67,2.48,7.84.49,12.07.92,1.9.19,4-.79,5.65,1-10.89,0-21.77,0-32.65-.18-2.56,0-3.46.62-3.35,3.28C1375.24,237.17,1375,241.46,1375,245.74Z" transform="translate(-1119.34 -79.87)"/><path class="cls-18" d="M1443.37,141.7c-4.16-.54-5.28,2.54-6.5,5.49-3-2.51-4-6.64-7.43-8.89-1.27-.83,0-2.06.93-2.75a12.55,12.55,0,0,0,3.65-4,6.62,6.62,0,0,0,.18-6.15c-.6-1.41-1.8-2.67-1.18-4.4,0-2.11,1.66-3.16,2.9-4.46,9.4-9.87,19.76-18.81,28.53-29.29,1.28-1.54,3-1.31,4.58-1.31q13.5,0,27,0-12.81,13-25.62,26.11c-1.5,1.52-2.9,3.13-4.35,4.7-2.29,2.36-5.26,1.17-7.93,1.53-3.65.48-7.54-1.19-10.95,1.26-2.7,5.37-1.26,11.36-2.58,16.94C1444.17,138.24,1444.6,140.16,1443.37,141.7Z" transform="translate(-1119.34 -79.87)"/><path class="cls-25" d="M1435.23,131.87c-1.13,2.69-3.22,4.38-6.22,5.64,4.83,1.73,6.92,5.27,7.86,9.68-.44,6.24-2.76,11.19-9.28,13.1-7.29,2.15-14,1.55-19.44-4.46-1-2.9-2.26-5.72-2-8.89,5.32-2.23,7.12-1.91,10,2.46,1.71,2.6,3.83,3.51,6.73,2.79a4.13,4.13,0,0,0,3.22-3.95c.3-3.32-2-4.53-4.62-5.6-5-2.09-5.26-2.84-3.24-7.67l-.06.08a4.46,4.46,0,0,1,2.6-1.34c4.22-1,5.81-3.5,4.31-7.71l-1.34-1.08a4.72,4.72,0,0,0-4.66,0,3.22,3.22,0,0,0-2.78,2.49c-1.18,6.09-5.17,2.9-8.09,2.42-2.1-.35-.84-2.08-.5-3.18,2.64-8.58,12.92-12.38,21.62-8A39.72,39.72,0,0,1,1433,121l2.2,3.9A15.89,15.89,0,0,1,1435.23,131.87Z" transform="translate(-1119.34 -79.87)"/><path class="cls-26" d="M1418.21,135c-.1,3.43-.83,7,4.8,6.74,3.37-.14,4.7,2.86,4.7,5.88s-1.06,5.64-4.4,6.31c-3,.61-6.88.61-7.7-2.65-1.52-6.1-5.61-4.54-9.5-4.31C1409.37,142.17,1412.79,137.55,1418.21,135Z" transform="translate(-1119.34 -79.87)"/><path class="cls-26" d="M1425.06,126c3.18,3.88,2.42,7.19-2,8.37a40,40,0,0,1-4.91.68Z" transform="translate(-1119.34 -79.87)"/><path class="cls-26" d="M1419.06,124.9c1.56-1.17,3.11-1.47,4.66,0Z" transform="translate(-1119.34 -79.87)"/><path class="cls-3" d="M1598.92,546.13H1541a18.51,18.51,0,0,1,4.48-5.88q36.43-36.36,72.82-72.78c1.28-1.28,2.41-2.71,3.6-4.07h57c.83,2.35-.77,3.83-2.13,5.18C1650.81,494.46,1625.14,520.57,1598.92,546.13Z" transform="translate(-1119.34 -79.87)"/><path class="cls-25" d="M1443.37,141.7c-1-6.8,1-13.39,1.48-20.09.08-1.13.21-2.26.31-3.39,7.48-1.78,15.06-.56,22.59-.62,2.67,0,1.67,2.59,1.48,4.29-.11,2-.56,3.46-3.17,3.19a64.21,64.21,0,0,0-6.94,0c-7.91,0-7.91,0-7.74,8.19,11.66-5.1,19.32-.44,20.81,12.66-1.22,10.15-4.34,13.21-16.16,15.88-5.75-1.06-11.66-1.95-14-8.51-.5-1.4-2.36-4,.4-4.25,2.39-.25,5.83-3.18,7.66,1,1.65,3.73,4.07,5.61,8.17,4.29,3.75-1.21,5.76-5.94,4.65-10.86-.85-3.73-3.24-5.69-7.13-5.47-1.11.06-2.72.19-3.22.9C1450.18,142.24,1446.81,141.94,1443.37,141.7Z" transform="translate(-1119.34 -79.87)"/><path class="cls-7" d="M1179.4,267.67q.75,30,0,59.92c-2.33,0-3.43,1.85-4.8,3.21q-20.46,20.38-40.84,40.83a41.93,41.93,0,0,1-8.43,6.89c0-17.27.1-34.54-.08-51.81a12.11,12.11,0,0,1,4.09-9.83c15.5-15,30.64-30.42,45.94-45.66C1176.57,269.94,1178,268.85,1179.4,267.67Z" transform="translate(-1119.34 -79.87)"/><path class="cls-18" d="M1179.48,378.15c.93,2.1,2.83,1.3,4.35,1.34,6.12.13,12.25.13,18.38.18-5.34,5.47-10.62,11-16,16.38q-28.35,28.41-56.77,56.74c-1.28,1.28-2.72,2.41-4.09,3.61,0-7.65.22-15.3-.08-22.93-.19-4.73,1-8,4.73-11.48,12.61-11.81,24.56-24.32,36.84-36.47,4.13-4.08,7.85-8.58,12.58-12A8.94,8.94,0,0,1,1179.48,378.15Z" transform="translate(-1119.34 -79.87)"/><path class="cls-11" d="M1688.79,609.08c.63-7.1,1.1-14.19-.25-21.27a52.6,52.6,0,0,0-10.7-22.59c-1.5-3,1.17-4.21,2.63-5.71,8.38-8.54,16.88-16.94,25.34-25.4q33.84-33.83,67.67-67.66c1-1.05,2.21-2,3.27-3.05q27.13,0,54.28,0c1.39,0,3.38-.83,4,.84s-1.29,2.48-2.27,3.47q-9.45,9.57-19,19a16.56,16.56,0,0,0-4.07,5.57c-3.75,2.67-8,1.3-12,1.4-9.08.22-9.07.08-10.35,9.06-.6,4.26-1,8.56-1.79,12.78-.18.48-.36,1-.52,1.46-1,2.39-2.85,4-4.61,5.8q-42.47,42.47-85,84.9c-1.29,1.29-2.44,2.82-4.15,3.53C1689.33,612.05,1688,611.72,1688.79,609.08Z" transform="translate(-1119.34 -79.87)"/><path class="cls-27" d="M1776.75,463.4c-.09,2.5-2.18,3.63-3.66,5.1q-45.77,45.83-91.59,91.61c-1.47,1.48-3.55,2.61-3.66,5.11-10.45-10.69-23.56-15.8-38-18.14-4.14-1.12-4.43-1.87-1.89-5,1-1.16,2.07-2.15,3.12-3.21,24.54-24.71,49.45-49.05,73.75-74a18,18,0,0,1,2-1.5Z" transform="translate(-1119.34 -79.87)"/><path class="cls-18" d="M1720.6,646.13c-.6,3.13-2.38,5.36-4.73,7.54-5.81,5.39-11.27,11.16-16.91,16.72-1.07,1.06-1.91,3-4,1.69a69.16,69.16,0,0,0-12.26-17.93c8.6-8.79,17.37-17.43,26.08-26.12,30.85-30.8,61.6-61.71,92.55-92.42,6-1.77,9-6.76,12.41-11.32l4.85-4a3.12,3.12,0,0,1,1.62,2.36c1,6.44,5.08,10.43,10.63,13.23,1.37,3.34-1.44,4.81-3.17,6.55q-26.65,26.8-53.45,53.46a108.25,108.25,0,0,0-8.43,9.1c-8,2-16,4-23.2,8.23C1729.8,620.63,1722.6,631.61,1720.6,646.13Z" transform="translate(-1119.34 -79.87)"/><path class="cls-28" d="M1716.8,463.4c-.9,2.41-2.65,4.17-4.43,5.94Q1676,505.67,1639.58,542c-1.95,1.94-3.58,3.56.27,5.06-13.62-1.39-27.29-.36-40.93-1,.11-2.29,2-3.35,3.37-4.71q36-36.09,72.13-72.1c1.77-1.77,3.52-3.52,4.42-5.92Z" transform="translate(-1119.34 -79.87)"/><path class="cls-29" d="M1874.66,464.39v30.95c-7.3,7.72-15,15.09-22.51,22.57-1.51,1.49-3.23,2.55-5.12.41-3.57-9.13-10.59-9.73-18.73-7.55-1.35-.61-1.61-1.82-1.75-3.1.06-4,1.74-7.08,5.32-8.82,2.37-1.14,5-1.09,6.91.94,1.76,1.87,3.78,3.42,6,1.73s-.56-3.43-1-5.17a4,4,0,0,1-.24-1.92c8.67-7.28,16.08-15.85,24.26-23.62C1870,468.64,1872.36,466.52,1874.66,464.39Z" transform="translate(-1119.34 -79.87)"/><path class="cls-25" d="M1828.76,510.34c8.27-4.77,15.11-1.92,19.16,8,2.51,6,1,11.23-3.55,15.39-3.82,3.53-8.4,5.42-13.66,2.68-8.38-2.11-10.84-8.67-12.14-16.1.32-4.62-.24-9.24.84-13.85,3.06-13.12,11.95-17.63,24.08-12a15.66,15.66,0,0,1,2,2.77c.82,1.81,3.31,4.54,1.29,5.44s-5.66,3.14-8.11-1c-2.13-3.6-6.42-3.35-9.06.08a9.86,9.86,0,0,0-2.09,5.49C1827.38,508.47,1826.12,510.14,1828.76,510.34Z" transform="translate(-1119.34 -79.87)"/><path class="cls-30" d="M1813.72,524.29a16.67,16.67,0,0,1-12,12c-7.93,3.09-16.59-.43-19.29-7.9-1-2.73-1.29-5.29,2.4-6.26,3.37-.3,6.54-.38,8.74,3.07,1.73,2.72,4.42,3.53,7.31,1.78,2.54-1.53,3.33-7.28,1.5-10s-4.66-2.79-7.5-1.73c-1.55.57-2.41,2.29-4.13,2.67a5,5,0,0,1-1.5,0c-1.78-.69-4.22.31-5.34-2.06.94-6.52,2.09-13,2.72-19.56.29-3,1.33-3.89,4.25-3.83,6.28.13,12.56-.09,18.84-.17,2.69,5.75,1.52,7.91-4.29,7.92h-5c-7.16,0-7.16,0-7.52,7.85a36.19,36.19,0,0,1,5.39-1.73c8.16-1.27,14.41,3.86,15.29,12.48C1813.79,520.63,1813.69,522.47,1813.72,524.29Z" transform="translate(-1119.34 -79.87)"/><path class="cls-9" d="M1830.71,536.4c13.66.8,18.66-7.77,17.21-18.07,2.17,1.33,2.93-.77,4-1.78q8.68-8.52,17.21-17.17a16.27,16.27,0,0,1,5.56-4q0,21.46,0,42.93c0,1,0,2,0,3-1,2-2.87,3.14-4.38,4.65q-27.39,27.15-54.61,54.47c-1.86,1.85-2.57,5.27-6.22,4.91-14.55-1.75-29.11-2.32-43.68-.3-.37-2.8,1.81-4.12,3.41-5.72q29.05-29.09,58.15-58.16C1828.69,539.75,1830.59,538.69,1830.71,536.4Z" transform="translate(-1119.34 -79.87)"/><path class="cls-7" d="M1809.45,605.3c3.2-1.48,4.37-4.87,6.71-7.19q25.18-24.83,50.08-50a40.94,40.94,0,0,1,8.42-6.89c0,17.76,0,35.52.06,53.28a9.14,9.14,0,0,1-3,7.28c-9.16,9.11-18.86,17.72-27.18,27.67C1837.36,614.9,1824.36,608.72,1809.45,605.3Z" transform="translate(-1119.34 -79.87)"/><path class="cls-9" d="M1469.23,121.89c.43-2.94-.24-4.5-3.8-4.22-6.74.54-13.53-.51-20.27.55,1.75-2.43,4.29-1.13,6.44-1.24,4.8-.23,9.62-.14,14.44-.19C1469.84,116.78,1471.25,118.26,1469.23,121.89Z" transform="translate(-1119.34 -79.87)"/><path class="cls-31" d="M1237.84,252.89c-5.3.11-10.6.17-15.89.37-2.33.08-2.7-1-2.69-3,.06-15.77,0-31.54,0-47.31,0-1.66.15-2.92,2.33-2.87,18.42.4,36.88-.91,55.27,1a9.61,9.61,0,0,1,2.32.86c1.48,3-1.22,4.2-2.68,5.68-12.28,12.42-24.66,24.72-37,37.07a22.9,22.9,0,0,1-2.49,2.44C1233.55,249.58,1234.77,251.34,1237.84,252.89Z" transform="translate(-1119.34 -79.87)"/><path class="cls-32" d="M1237.84,252.89c-1-.06-2-.14-3-.18-2.8-.11-3.22-1.37-1.59-3.45a35.55,35.55,0,0,1,2.78-2.85q19.9-19.9,39.79-39.81c1.37-1.37,3.27-2.43,3.35-4.73,13.17,3.36,19.78,10.62,19.94,21.89-1.27,2.78-3.49,4.8-5.66,6.81-7.84,7.3-14.5,15.83-23.28,22.16C1259.42,253.67,1248.63,253.37,1237.84,252.89Z" transform="translate(-1119.34 -79.87)"/><path class="cls-18" d="M1278.68,283.56a28.48,28.48,0,0,1,15.54,4c.69,2.28-1.18,3.31-2.38,4.51q-24.08,24.19-48.24,48.31a41.24,41.24,0,0,1-4.38,3.24,117.79,117.79,0,0,1-19-.05c-1-3.74-.25-7.55-.47-11.32-.11-1.86,1.07-3,2.3-4.17q21.7-20.85,42.57-42.53c1.32-1.37,2.57-2.55,4.63-2.41C1272.41,283.38,1275.57,282.78,1278.68,283.56Z" transform="translate(-1119.34 -79.87)"/><path class="cls-19" d="M1239.22,343.66c2.75-4,6.53-7,9.91-10.43,13.79-13.89,27.67-27.68,41.5-41.54,1.28-1.28,2.39-2.72,3.59-4.09a21.07,21.07,0,0,1,13,15.91c1,2.12-.36,3.52-1.62,4.79q-16.48,16.65-33.13,33.15c-1,1-2.35,1.24-3.29,2.21Q1254.21,344.38,1239.22,343.66Z" transform="translate(-1119.34 -79.87)"/><path class="cls-9" d="M1278.68,283.56c-7.3-1.13-12.3,1.82-17.46,7.23-12.83,13.46-25.66,27-39.69,39.25-1.33,1.16-1.27,2.6-1.27,4.09q0,4.74,0,9.48c-1.86-.94-.91-2.65-.91-3.95-.08-17.57.06-35.14-.14-52.71,0-3.54.94-4.38,4.4-4.34,16.25.2,32.5.09,48.76.14C1274.49,282.75,1276.69,282.45,1278.68,283.56Z" transform="translate(-1119.34 -79.87)"/><path class="cls-33" d="M1269.19,343.66c10.93-12.22,23.07-23.24,34.44-35,1.46-1.5,3.51-2.65,3.6-5.13,5,17.06,1.11,37.12-25.66,39.94C1277.48,343.88,1273.33,344.41,1269.19,343.66Z" transform="translate(-1119.34 -79.87)"/><path class="cls-9" d="M1270.2,252.73c9.22-10.08,18.92-19.69,28.94-29C1300.9,241.25,1289.13,253,1270.2,252.73Z" transform="translate(-1119.34 -79.87)"/><path class="cls-19" d="M1785.75,523.23c-2.5.17-3.43,1.17-2.62,3.83,1.56,5.12,6.19,8.79,12.19,9.18,2.13.14,4.27.06,6.41.08-1.09,1.24-2.11,2.55-3.28,3.71q-55.29,55.29-110.61,110.53c-1.49,1.48-2.67,3.51-5.16,3.59-8.16-6.75-17.32-11.27-28.61-12.34a10.75,10.75,0,0,1,2.11-1.27c17.2-3.95,28.29-14.19,32.61-31.46.22,1,.35,2.21,1.79,1.51a9.45,9.45,0,0,0,2.24-1.93q44.73-44.68,89.44-89.39a17,17,0,0,0,1.49-2,9.22,9.22,0,0,1,6.09-.08l0,0C1790.22,520.37,1787.38,521.39,1785.75,523.23Z" transform="translate(-1119.34 -79.87)"/><path class="cls-27" d="M1595.74,630.79c-8.93,0-16.42-.13-23.9.06-2.92.07-4-.54-4-3.78.17-15.29.11-30.58,0-45.87,0-2.31.17-3.67,3.15-3.61,17.12.37,34.26-.56,51.36.62,14.06,1,23.87,9.21,25.43,21,2.28,17.13-7.5,29.12-25.11,31C1613.24,631.23,1603.76,630.48,1595.74,630.79Z" transform="translate(-1119.34 -79.87)"/><path class="cls-15" d="M1568.27,721q-.18-25.41-.35-50.81c-.05-10,0-10.17,10-10,17.28.29,34.6-1,51.85.88a30,30,0,0,1,12.28,3.6c.88,2.29-1,3.35-2.2,4.55q-24.83,25-49.78,49.8c-1.31,1.31-2.67,2.53-4.72,2.46C1579.67,721.19,1573.94,722,1568.27,721Z" transform="translate(-1119.34 -79.87)"/><path class="cls-19" d="M1586.92,720.76q25.66-25.77,51.31-51.57c1.39-1.4,3.07-2.58,3.83-4.53,7.61,3.34,12.43,8.92,13.9,17.21.49,2.37-1.26,3.64-2.61,5q-15.81,15.92-31.71,31.74c-1.7,1.69-3.51,2.91-6.09,2.89-9-.08-18,0-26.92,0C1588,721.46,1587.31,721.43,1586.92,720.76Z" transform="translate(-1119.34 -79.87)"/><path class="cls-29" d="M1586.92,720.76l27.92.22a4.66,4.66,0,0,0,3.68-1.16c12.44-12.7,25.53-24.74,37.44-38,5.22,20.31-2.22,36.69-25.54,38.94-20.4,2-40.93.58-61.39.74-.25,0-.5-.37-.76-.56Z" transform="translate(-1119.34 -79.87)"/><path class="cls-34" d="M1747.79,669c.07-2.29,2-3.35,3.32-4.71,9.32-9.38,18.69-18.7,28-28.07.89-.89,2.55-1.71,2.08-3.08-.62-1.8-2.6-.73-3.94-1.1a44.45,44.45,0,0,1,25.28,2.51c7.16,2.92,10.59,9.83,10.13,17.73-.19,3.27-2.54,3.18-4.37,3.66-14.24,3.72-28.74,6.23-43.16,9.16C1759.34,666.27,1753.57,667.68,1747.79,669Z" transform="translate(-1119.34 -79.87)"/><path class="cls-12" d="M1801.7,686l10.8-4c0,7.69.38,15-.09,22.18-.72,11.18-7.66,18-17.5,21.95-10.78,4.37-21.81,6.33-33.09,1.56-.35-1.54.66-2.51,1.58-3.43Q1782.5,705.06,1801.7,686Z" transform="translate(-1119.34 -79.87)"/><path class="cls-31" d="M1801.7,686c-.79,2.48-2.58,4.2-4.35,6q-17.79,17.87-35.53,35.76c-7.38-3.35-11.32-9-11-17.17s5.12-13.4,12.7-16C1776,690.38,1788.9,688.45,1801.7,686Z" transform="translate(-1119.34 -79.87)"/><path class="cls-9" d="M1435.23,131.87c0-2.31,0-4.62,0-6.93A6.73,6.73,0,0,1,1435.23,131.87Z" transform="translate(-1119.34 -79.87)"/><path class="cls-35" d="M1789.84,517.22l-6.09.08.17-1.43Z" transform="translate(-1119.34 -79.87)"/><path class="cls-36" d="M1828.76,510.34c-.38.77-1.28,1.71-1.76,1a3.45,3.45,0,0,1,.56-4.13C1828.09,508.19,1827.14,509.76,1828.76,510.34Z" transform="translate(-1119.34 -79.87)"/><path class="cls-37" d="M1840,522.06c.08,4.57-2.22,7.33-6.16,7.21-4.33-.13-6-2.78-6.11-6.79-.09-4.56,2.2-7.2,6.2-7.19C1837.73,515.31,1839.87,517.7,1840,522.06Z" transform="translate(-1119.34 -79.87)"/><path class="cls-35" d="M1785.75,523.23c.13-2.86,3.18-3.74,4.11-6.05,1.28-.11,2-1,2.7-1.9,2.53-3.17,5.84-2.83,9-1.41s4.18,6.8,2.61,11.13c-1.27,3.51-3.73,4.8-7.32,4.48-1.61-.15-3.3-.81-3.66-2.14C1792.05,523.2,1789.11,523,1785.75,523.23Z" transform="translate(-1119.34 -79.87)"/></svg>